<?xml version="1.0" encoding="utf-8"?>
<!-- Generator: Adobe Illustrator 16.0.0, SVG Export Plug-In . SVG Version: 6.00 Build 0)  -->
<!DOCTYPE svg PUBLIC "-//W3C//DTD SVG 1.1//EN" "http://www.w3.org/Graphics/SVG/1.1/DTD/svg11.dtd">
<svg version="1.1" xmlns="http://www.w3.org/2000/svg" xmlns:xlink="http://www.w3.org/1999/xlink" x="0px" y="0px" width="981px"
	 height="184.5px" viewBox="0 0 981 184.5" enable-background="new 0 0 981 184.5" xml:space="preserve">
<g id="Layer_1_copy">
  <a xlink:href="/body_parts/cage_thoracique">
    <text transform="matrix(1 0 0 1 85.2959 39.5)" class='menu-caption'>La cage thoracique</text>
  </a>
  <a xlink:href="/body_parts/arbre_tracheo_bronchique">
    <text transform="matrix(1 0 0 1 7.3975 81.0234)" class='menu-caption'>Arbre tracheo-bronchique</text>
  </a>
  <text transform="matrix(1 0 0 1 314.8066 101.75)" class='menu-caption'>Anatomie</text>
	<text transform="matrix(1 0 0 1 67.3506 122.5469)" class='menu-caption'>Poumons et plèvres</text>
	<text transform="matrix(1 0 0 1 161.9399 164.0703)" class='menu-caption'>Médiastin</text>
	<text transform="matrix(1 0 0 1 581.7285 100.75)" class='menu-caption'>Radioanatomie</text>
	<text transform="matrix(1 0 0 1 793.7842 27.166)" class='menu-caption'>Radiographie standard</text>
	<text transform="matrix(1 0 0 1 803.8135 68.208)" class='menu-caption'>TDM</text>
	<text transform="matrix(1 0 0 1 812.8711 92.7363)" class='menu-caption'>IRM</text>
	<text transform="matrix(1 0 0 1 802.3438 124.7861)" class='menu-caption'>Echographie</text>
	<text transform="matrix(1 0 0 1 789.0508 159.3369)" class='menu-caption'>Angiographie</text>
	<g>
		<g>
			<path fill="#9DC2C4" d="M242.372,39.619c1.206-0.612,2.525-1.339,3.768-3.349c1.242-2.009,0.867-2.914,1.23-2.742
				c0.362,0.172,0.988,0.756,1.146,0.902c0.156,0.146,0.25,1.781-1.539,3.881c-1.789,2.101-2.807,2.445-3.667,1.987
				C242.448,39.837,242.372,39.619,242.372,39.619z"/>
			<path fill="#9DC2C4" d="M244.928,41.201c1.875-1.059,2.287-1.353,3.122-2.672c0.834-1.32,1.381-2.043,1.566-3.142
				c0.747,0.203,1.742,1.123,1.742,1.123s0.396,0.991-1.668,3.529c-2.065,2.538-2.832,2.275-3.253,2.35
				C246.016,42.465,244.928,41.201,244.928,41.201z"/>
			<path fill="#9DC2C4" d="M248.088,43.484c1.387-0.91,2.435-1.772,3.371-3.91c0.934-2.137,0.819-2.364,1.192-2.206
				c0.373,0.159,2.263,1.034,1.544,2.438c-0.719,1.402-0.971,2.584-2.908,4.07c-1.938,1.484-1.838,1.042-2.199,0.782
				C248.728,44.396,247.641,43.777,248.088,43.484z"/>
			<path fill="#9DC2C4" d="M250.393,45.457c1.504-0.942,1.002-0.569,1.96-1.671s1.63-1.999,2.144-3.133
				c0.514-1.135,0.587-1.62,1.102-1.373c0.514,0.246,1.422,0.847,1.559,1.135c0.135,0.287-0.129,1.37-0.995,2.385
				c-0.868,1.015-1.29,2.04-1.772,2.769c-0.483,0.729-1.626,2.295-2.586,1.676C250.842,46.625,250.092,45.646,250.393,45.457z"/>
			<path fill="#9DC2C4" d="M257.936,41.119c0.501-0.632,2.349,1.215,2.303,1.474c-0.045,0.258-3.182,3.583-4.809,3.523
				c-0.723-0.003-0.044-0.894,1.113-2.02C257.701,42.971,257.737,41.37,257.936,41.119z"/>
			<path fill="#9DC2C4" d="M253.588,47.995c1.641-0.994,2.319-1.049,3.458-1.806c1.138-0.756,3.722-3.407,4.22-3.061
				c0.496,0.346,2.533,1.61,1.175,2.532c-1.36,0.921-2.157,1.878-3.956,2.986c-1.799,1.106-2.504,2.002-3.733,1.121
				C253.522,48.885,252.928,48.395,253.588,47.995z"/>
			<path fill="#9DC2C4" d="M256.647,50.666c1.482-0.851,2.223-1.457,3.637-2.154c1.413-0.697,2.633-2.189,3.223-2.797
				c0.591-0.605,2.537,0.601,1.957,1.541c-0.58,0.938-1.907,2.452-3.265,3.601c-1.356,1.149-1.886,2.137-2.527,2.377
				c-0.642,0.241-1.237-0.499-0.677-1.325c0.56-0.826-0.232-0.454-0.842,0.063C257.543,52.487,256.167,50.94,256.647,50.666z"/>
			<path fill="#9DC2C4" d="M260.614,53.705c2.255-1.273,3.072-2.38,4.035-3.862c0.963-1.483,1.229-3.374,2.344-2.26
				c1.116,1.113,0.799,1.975-1.539,4.716c-2.338,2.741-3.444,2.911-4.26,2.337C260.377,54.062,260.292,53.886,260.614,53.705z"/>
			<path fill="#9DC2C4" d="M262.6,55.177c1.278-0.533,2.307-0.946,3.572-2.642c1.268-1.696,1.745-2.7,1.982-3.464
				c0.236-0.763,1.342,0.966,1.596,1.392c0.252,0.426-0.71,2.655-2.861,4.469c-2.152,1.814-2.373,1.98-3.49,1.214
				S262.364,55.275,262.6,55.177z"/>
			<path fill="#9DC2C4" d="M265.282,57.174c1.549-0.871,2.342-1.393,3.703-3.354c1.361-1.961,1.3-3.118,1.502-2.914
				c0.201,0.204,1.335,1.005,1.555,1.474c0.221,0.467-0.035,2.46-2.029,4.535c-1.994,2.073-2.631,1.934-3.122,1.638
				C266.399,58.257,264.778,57.457,265.282,57.174z"/>
			<path fill="#9DC2C4" d="M268.401,59.041c1.088-0.552,2.172-1.141,3.304-2.695c1.132-1.553,0.79-4.108,1.741-3.246
				c0.95,0.861,2.115,1.394,1.906,2.292c-0.21,0.9-1.08,3.903-3.463,5.149c-1.141,0.529-1.574,0.188-2.423-0.344
				C268.618,59.665,268.079,59.204,268.401,59.041z"/>
			<path fill="#9DC2C4" d="M271.598,61.512c1.082-0.539,2.425-1.442,3.102-2.56c0.678-1.119,0.914-1.249,1.025-2.136
				c0.109-0.887-0.043-2.018,1.36-1.154c0.506,0.248,1.157,0.397,0.644,1.396c-0.515,0.999-0.449,2.9-0.52,3.707
				c-0.07,0.808-1.224,1.756-2.102,1.924c-0.879,0.168-2.102,0.457-2.895-0.261S271.362,61.63,271.598,61.512z"/>
		</g>
		<g>
			<path fill="#9DC2C4" d="M274.627,64.19c1.207-0.612,2.525-1.339,3.768-3.349c1.242-2.009,0.869-2.915,1.23-2.743
				c0.362,0.172,0.988,0.756,1.146,0.902c0.156,0.146,0.25,1.781-1.539,3.881c-1.789,2.1-2.807,2.444-3.667,1.986
				C274.704,64.409,274.627,64.19,274.627,64.19z"/>
			<path fill="#9DC2C4" d="M277.184,65.772c1.875-1.059,2.287-1.353,3.122-2.672c0.834-1.319,1.382-2.044,1.567-3.142
				c0.746,0.203,1.742,1.122,1.742,1.122s0.396,0.991-1.67,3.53c-2.064,2.538-2.83,2.274-3.252,2.351
				C278.272,67.036,277.184,65.772,277.184,65.772z"/>
			<path fill="#9DC2C4" d="M280.344,68.055c1.387-0.911,2.435-1.772,3.371-3.91c0.935-2.138,0.818-2.364,1.192-2.206
				c0.374,0.158,2.263,1.034,1.544,2.437c-0.719,1.403-0.971,2.585-2.908,4.069c-1.938,1.485-1.838,1.042-2.199,0.782
				C280.983,68.966,279.897,68.348,280.344,68.055z"/>
			<path fill="#9DC2C4" d="M282.649,70.028c1.504-0.943,1.002-0.569,1.96-1.67c0.958-1.102,1.63-2,2.144-3.133
				c0.514-1.134,0.587-1.619,1.102-1.373s1.422,0.848,1.558,1.135s-0.128,1.37-0.995,2.385c-0.866,1.015-1.288,2.041-1.771,2.77
				c-0.482,0.729-1.627,2.295-2.586,1.676C283.098,71.196,282.348,70.217,282.649,70.028z"/>
			<path fill="#9DC2C4" d="M290.191,65.69c0.501-0.632,2.349,1.215,2.304,1.474c-0.045,0.259-3.182,3.583-4.809,3.524
				c-0.723-0.002-0.044-0.894,1.113-2.02C289.958,67.542,289.993,65.941,290.191,65.69z"/>
			<path fill="#9DC2C4" d="M285.844,72.566c1.641-0.993,2.32-1.049,3.457-1.805c1.139-0.756,3.724-3.407,4.221-3.061
				c0.496,0.346,2.534,1.61,1.175,2.532s-2.157,1.878-3.956,2.985c-1.799,1.106-2.504,2.003-3.734,1.121
				C285.778,73.456,285.184,72.966,285.844,72.566z"/>
			<path fill="#9DC2C4" d="M288.903,75.236c1.482-0.851,2.224-1.456,3.637-2.154c1.414-0.698,2.633-2.19,3.223-2.796
				c0.591-0.607,2.537,0.601,1.957,1.54c-0.58,0.938-1.906,2.452-3.265,3.601c-1.356,1.149-1.885,2.136-2.527,2.377
				c-0.642,0.242-1.237-0.498-0.678-1.324c0.561-0.826-0.231-0.454-0.841,0.062C289.799,77.059,288.423,75.512,288.903,75.236z"/>
			<path fill="#9DC2C4" d="M292.87,78.275c2.254-1.273,3.072-2.379,4.035-3.862s1.229-3.373,2.344-2.26
				c1.116,1.114,0.799,1.976-1.539,4.716c-2.338,2.741-3.445,2.911-4.26,2.337C292.633,78.632,292.547,78.457,292.87,78.275z"/>
			<path fill="#9DC2C4" d="M294.856,79.748c1.277-0.534,2.306-0.946,3.572-2.642c1.267-1.695,1.745-2.7,1.982-3.463
				c0.236-0.764,1.342,0.965,1.595,1.391c0.254,0.426-0.71,2.655-2.86,4.47c-2.152,1.813-2.373,1.979-3.49,1.213
				C294.538,79.95,294.62,79.847,294.856,79.748z"/>
			<path fill="#9DC2C4" d="M297.539,81.745c1.549-0.87,2.341-1.393,3.702-3.354c1.362-1.96,1.3-3.118,1.502-2.915
				c0.201,0.204,1.336,1.006,1.556,1.474c0.22,0.468-0.036,2.461-2.03,4.536c-1.994,2.073-2.631,1.934-3.122,1.638
				C298.655,82.828,297.034,82.028,297.539,81.745z"/>
			<path fill="#9DC2C4" d="M300.657,83.611c1.088-0.552,2.172-1.142,3.305-2.694c1.132-1.554,0.789-4.108,1.74-3.247
				c0.95,0.862,2.116,1.394,1.906,2.292c-0.209,0.898-1.08,3.902-3.464,5.148c-1.14,0.528-1.573,0.188-2.421-0.344
				C300.874,84.235,300.334,83.776,300.657,83.611z"/>
			<path fill="#9DC2C4" d="M303.854,86.083c1.082-0.54,2.424-1.442,3.102-2.561s0.915-1.249,1.024-2.135
				c0.11-0.886-0.042-2.017,1.362-1.154c0.506,0.248,1.156,0.397,0.643,1.396s-0.449,2.9-0.52,3.708s-1.222,1.755-2.101,1.923
				c-0.88,0.168-2.102,0.457-2.895-0.261S303.618,86.202,303.854,86.083z"/>
		</g>
	</g>
	<g>
		<g>
			<path fill="#9DC2C4" d="M227.301,82.251c0.853-1.05,1.762-2.251,2.076-4.593c0.317-2.341-0.395-3.014,0.007-3.005
				c0.401,0.009,1.211,0.287,1.415,0.356c0.202,0.068,0.954,1.525,0.175,4.172c-0.778,2.646-1.567,3.375-2.54,3.307
				C227.459,82.42,227.301,82.251,227.301,82.251z"/>
			<path fill="#9DC2C4" d="M230.281,82.655c1.281-1.731,1.537-2.168,1.764-3.711c0.223-1.546,0.428-2.431,0.149-3.508
				c0.766-0.12,2.049,0.314,2.049,0.314s0.766,0.743-0.084,3.902c-0.854,3.16-1.661,3.231-2.014,3.471
				C231.789,83.366,230.281,82.655,230.281,82.655z"/>
			<path fill="#9DC2C4" d="M234.095,83.452c0.897-1.396,1.503-2.61,1.487-4.942c-0.018-2.332-0.215-2.494,0.191-2.501
				c0.404-0.007,2.487,0.022,2.403,1.597c-0.086,1.573,0.166,2.757-1,4.902c-1.165,2.145-1.253,1.699-1.689,1.609
				C235.053,84.025,233.807,83.902,234.095,83.452z"/>
			<path fill="#9DC2C4" d="M237.005,84.315c0.989-1.472,0.683-0.927,1.108-2.324c0.428-1.396,0.676-2.487,0.682-3.734
				c0.007-1.245-0.124-1.718,0.446-1.702s1.645,0.194,1.886,0.402c0.242,0.207,0.441,1.304,0.063,2.584
				c-0.377,1.28-0.346,2.389-0.49,3.249c-0.145,0.864-0.551,2.759-1.68,2.585C237.891,85.199,236.807,84.611,237.005,84.315z"/>
			<path fill="#9DC2C4" d="M242.127,77.282c0.2-0.782,2.641,0.153,2.704,0.408c0.063,0.254-1.447,4.567-2.957,5.177
				c-0.662,0.293-0.404-0.799,0.194-2.298S242.048,77.593,242.127,77.282z"/>
			<path fill="#9DC2C4" d="M240.958,85.332c1.095-1.576,1.69-1.902,2.422-3.057c0.731-1.153,2.012-4.627,2.607-4.514
				c0.594,0.114,2.969,0.438,2.103,1.834c-0.867,1.395-1.204,2.594-2.396,4.338c-1.192,1.742-1.472,2.848-2.954,2.543
				C241.259,86.172,240.517,85.967,240.958,85.332z"/>
			<path fill="#9DC2C4" d="M244.839,86.526c1.007-1.382,1.437-2.236,2.443-3.45c1.006-1.211,1.512-3.071,1.803-3.865
				c0.294-0.795,2.563-0.485,2.416,0.609c-0.147,1.093-0.744,3.015-1.515,4.617c-0.771,1.602-0.853,2.721-1.34,3.2
				c-0.488,0.482-1.333,0.051-1.158-0.933c0.175-0.982-0.396-0.319-0.744,0.399C246.401,87.824,244.511,86.973,244.839,86.526z"/>
			<path fill="#9DC2C4" d="M249.699,87.686c1.542-2.081,1.838-3.426,2.111-5.172c0.277-1.746-0.25-3.58,1.221-3.019
				c1.474,0.563,1.533,1.479,0.515,4.935c-1.019,3.456-1.958,4.063-2.938,3.87C249.63,88.107,249.478,87.982,249.699,87.686z"/>
			<path fill="#9DC2C4" d="M252.113,88.222c0.95-1.007,1.722-1.804,2.186-3.868c0.467-2.065,0.494-3.178,0.401-3.972
				c-0.095-0.794,1.618,0.337,2.024,0.621c0.403,0.286,0.432,2.714-0.794,5.247s-1.36,2.775-2.692,2.53
				C251.906,88.535,251.937,88.406,252.113,88.222z"/>
			<path fill="#9DC2C4" d="M255.375,88.952c1.059-1.425,1.572-2.226,2.017-4.57c0.444-2.346-0.084-3.378,0.186-3.272
				c0.266,0.103,1.628,0.375,2.019,0.713c0.392,0.336,0.97,2.261-0.006,4.967c-0.977,2.705-1.614,2.838-2.184,2.768
				C256.838,89.487,255.032,89.416,255.375,88.952z"/>
			<path fill="#9DC2C4" d="M258.984,89.388c0.77-0.947,1.52-1.928,1.919-3.808c0.402-1.88-0.951-4.073,0.27-3.674
				c1.217,0.399,2.499,0.41,2.675,1.316c0.173,0.907,0.601,4.004-1.066,6.113c-0.828,0.947-1.362,0.813-2.354,0.672
				C259.436,89.869,258.756,89.667,258.984,89.388z"/>
			<path fill="#9DC2C4" d="M262.911,90.342c0.769-0.934,1.628-2.305,1.79-3.602c0.163-1.297,0.327-1.514,0.066-2.367
				c-0.261-0.855-0.86-1.825,0.772-1.609c0.564,0.021,1.22-0.108,1.158,1.014c-0.064,1.122,0.77,2.831,1.036,3.597
				c0.263,0.768-0.403,2.103-1.137,2.614c-0.734,0.511-1.733,1.273-2.75,0.94C262.83,90.595,262.743,90.546,262.911,90.342z"/>
		</g>
		<g>
			<path fill="#9DC2C4" d="M266.77,91.554c0.851-1.05,1.759-2.251,2.075-4.593c0.317-2.342-0.392-3.016,0.008-3.006
				c0.399,0.009,1.208,0.288,1.413,0.356c0.203,0.07,0.956,1.526,0.176,4.172c-0.778,2.646-1.568,3.376-2.539,3.307
				C266.928,91.723,266.77,91.554,266.77,91.554z"/>
			<path fill="#9DC2C4" d="M269.748,91.957c1.281-1.731,1.538-2.167,1.763-3.713c0.224-1.543,0.429-2.428,0.152-3.508
				c0.764-0.117,2.047,0.315,2.047,0.315s0.766,0.745-0.085,3.905c-0.854,3.157-1.66,3.229-2.016,3.47
				C271.256,92.668,269.748,91.957,269.748,91.957z"/>
			<path fill="#9DC2C4" d="M273.564,92.756c0.896-1.396,1.5-2.612,1.485-4.945c-0.017-2.332-0.215-2.492,0.191-2.5
				c0.407-0.008,2.487,0.023,2.402,1.599c-0.085,1.573,0.167,2.755-0.998,4.899c-1.166,2.145-1.255,1.7-1.689,1.609
				C274.518,93.327,273.276,93.205,273.564,92.756z"/>
			<path fill="#9DC2C4" d="M276.472,93.619c0.99-1.475,0.684-0.929,1.111-2.325c0.424-1.396,0.674-2.489,0.68-3.734
				s-0.124-1.719,0.447-1.702c0.57,0.016,1.644,0.193,1.886,0.402c0.24,0.206,0.439,1.303,0.062,2.583
				c-0.377,1.279-0.345,2.388-0.489,3.251c-0.144,0.861-0.551,2.76-1.68,2.583C277.358,94.502,276.275,93.914,276.472,93.619z"/>
			<path fill="#9DC2C4" d="M281.595,86.584c0.198-0.78,2.638,0.153,2.702,0.408c0.066,0.254-1.446,4.568-2.955,5.177
				c-0.662,0.292-0.405-0.798,0.193-2.299C282.134,88.37,281.514,86.895,281.595,86.584z"/>
			<path fill="#9DC2C4" d="M280.424,94.636c1.093-1.577,1.692-1.904,2.423-3.058c0.732-1.154,2.013-4.629,2.608-4.515
				c0.594,0.115,2.97,0.438,2.104,1.833c-0.865,1.396-1.206,2.594-2.397,4.338c-1.192,1.744-1.471,2.851-2.955,2.546
				C280.728,95.475,279.985,95.27,280.424,94.636z"/>
			<path fill="#9DC2C4" d="M284.306,95.828c1.006-1.381,1.438-2.235,2.443-3.449c1.008-1.212,1.513-3.073,1.806-3.867
				c0.292-0.794,2.56-0.483,2.414,0.609c-0.147,1.094-0.743,3.017-1.515,4.619c-0.77,1.604-0.852,2.719-1.34,3.2
				c-0.488,0.482-1.333,0.05-1.159-0.933c0.175-0.983-0.396-0.32-0.743,0.399C285.866,97.127,283.98,96.274,284.306,95.828z"/>
			<path fill="#9DC2C4" d="M289.167,96.988c1.54-2.082,1.835-3.426,2.111-5.173c0.275-1.745-0.251-3.58,1.22-3.018
				c1.473,0.563,1.534,1.479,0.516,4.934c-1.02,3.457-1.961,4.063-2.939,3.871C289.096,97.41,288.945,97.285,289.167,96.988z"/>
			<path fill="#9DC2C4" d="M291.58,97.522c0.95-1.007,1.719-1.803,2.185-3.866c0.468-2.065,0.495-3.178,0.4-3.973
				c-0.096-0.794,1.619,0.336,2.023,0.622c0.405,0.286,0.434,2.714-0.791,5.246c-1.227,2.533-1.362,2.775-2.693,2.53
				C291.371,97.838,291.405,97.71,291.58,97.522z"/>
			<path fill="#9DC2C4" d="M294.844,98.254c1.061-1.425,1.57-2.225,2.015-4.57c0.446-2.346-0.082-3.377,0.185-3.273
				s1.629,0.374,2.021,0.712c0.391,0.338,0.968,2.264-0.007,4.971c-0.976,2.704-1.615,2.837-2.184,2.767
				C296.303,98.789,294.497,98.718,294.844,98.254z"/>
			<path fill="#9DC2C4" d="M298.451,98.688c0.769-0.947,1.519-1.927,1.921-3.807c0.4-1.88-0.953-4.073,0.266-3.674
				c1.221,0.399,2.501,0.412,2.676,1.317c0.175,0.906,0.604,4.004-1.065,6.112c-0.828,0.946-1.363,0.813-2.354,0.673
				C298.904,99.169,298.224,98.971,298.451,98.688z"/>
			<path fill="#9DC2C4" d="M302.379,99.645c0.767-0.934,1.626-2.305,1.789-3.603c0.163-1.299,0.328-1.513,0.067-2.367
				c-0.262-0.854-0.861-1.825,0.772-1.608c0.562,0.02,1.218-0.108,1.156,1.013c-0.063,1.121,0.771,2.831,1.036,3.599
				c0.264,0.766-0.401,2.102-1.137,2.611c-0.735,0.513-1.732,1.274-2.749,0.941C302.298,99.898,302.211,99.849,302.379,99.645z"/>
		</g>
	</g>
	<g>
		<g>
			<path fill="#9DC2C4" d="M230.138,119.9c0.454-1.274,0.912-2.708,0.431-5.022c-0.478-2.313-1.375-2.711-0.991-2.837
				c0.382-0.126,1.238-0.133,1.453-0.134c0.214-0.003,1.405,1.122,1.551,3.877c0.145,2.754-0.357,3.705-1.298,3.964
				C230.342,120.007,230.138,119.9,230.138,119.9z"/>
			<path fill="#9DC2C4" d="M233.082,119.29c0.632-2.057,0.73-2.555,0.43-4.087c-0.304-1.53-0.403-2.433-1.024-3.357
				c0.681-0.367,2.038-0.381,2.038-0.381s0.968,0.444,1.214,3.706c0.247,3.264-0.492,3.601-0.745,3.942
				C234.741,119.462,233.082,119.29,233.082,119.29z"/>
			<path fill="#9DC2C4" d="M236.946,118.775c0.381-1.614,0.55-2.962-0.241-5.155c-0.791-2.195-1.03-2.279-0.65-2.423
				c0.379-0.141,2.353-0.803,2.797,0.709c0.44,1.512,1.071,2.544,0.685,4.955c-0.385,2.409-0.616,2.02-1.058,2.079
				C238.037,118.998,236.823,119.296,236.946,118.775z"/>
			<path fill="#9DC2C4" d="M239.976,118.623c0.444-1.718,0.335-1.102,0.273-2.561c-0.062-1.458-0.19-2.57-0.598-3.749
				c-0.407-1.177-0.687-1.577-0.144-1.753c0.542-0.176,1.616-0.363,1.913-0.247c0.295,0.115,0.85,1.082,0.917,2.414
				c0.068,1.334,0.466,2.369,0.617,3.229c0.151,0.861,0.397,2.785-0.726,2.996C241.106,119.162,239.887,118.968,239.976,118.623z"/>
			<path fill="#9DC2C4" d="M242.47,110.288c-0.07-0.804,2.542-0.733,2.686-0.514c0.144,0.22,0.155,4.788-1.068,5.866
				c-0.528,0.495-0.647-0.619-0.581-2.233C243.574,111.794,242.5,110.607,242.47,110.288z"/>
			<path fill="#9DC2C4" d="M244.042,118.269c0.507-1.851,0.96-2.355,1.269-3.686c0.305-1.332,0.36-5.035,0.959-5.124
				c0.598-0.09,2.946-0.575,2.593,1.029c-0.352,1.604-0.273,2.848-0.819,4.889c-0.546,2.04-0.442,3.175-1.94,3.379
				C244.606,118.961,243.838,119.015,244.042,118.269z"/>
			<path fill="#9DC2C4" d="M248.098,118.105c0.492-1.637,0.612-2.585,1.16-4.064c0.548-1.479,0.406-3.399,0.417-4.246
				c0.013-0.845,2.255-1.309,2.481-0.227c0.224,1.079,0.299,3.089,0.106,4.859c-0.197,1.766,0.099,2.847-0.202,3.464
				c-0.3,0.615-1.242,0.489-1.403-0.498c-0.161-0.982-0.48-0.168-0.568,0.624C250.001,118.813,247.939,118.636,248.098,118.105z"/>
			<path fill="#9DC2C4" d="M253.069,117.587c0.761-2.477,0.594-3.842,0.273-5.579c-0.319-1.74-1.427-3.295,0.147-3.254
				c1.577,0.041,1.941,0.884,2.126,4.483c0.188,3.596-0.499,4.48-1.485,4.626C253.142,118.006,252.958,117.939,253.069,117.587z"/>
			<path fill="#9DC2C4" d="M255.523,117.288c0.563-1.264,1.024-2.273,0.777-4.372c-0.246-2.105-0.589-3.162-0.943-3.881
				c-0.353-0.718,1.64-0.22,2.116-0.085c0.475,0.134,1.311,2.414,0.996,5.213c-0.316,2.796-0.362,3.068-1.7,3.28
				C255.432,117.653,255.418,117.523,255.523,117.288z"/>
			<path fill="#9DC2C4" d="M258.844,116.896c0.525-1.698,0.743-2.622,0.383-4.981c-0.36-2.36-1.2-3.158-0.912-3.15
				c0.287,0.011,1.66-0.186,2.142,0.003c0.48,0.187,1.666,1.812,1.644,4.688c-0.023,2.876-0.581,3.214-1.141,3.335
				C260.399,116.913,258.671,117.447,258.844,116.896z"/>
			<path fill="#9DC2C4" d="M262.391,116.106c0.411-1.148,0.793-2.322,0.545-4.229c-0.246-1.904-2.25-3.526-0.967-3.554
				c1.283-0.028,2.493-0.443,2.961,0.354c0.465,0.798,1.897,3.576,1.024,6.12c-0.464,1.169-1.014,1.218-1.995,1.415
				C262.979,116.409,262.269,116.446,262.391,116.106z"/>
			<path fill="#9DC2C4" d="M266.412,115.702c0.416-1.137,0.769-2.714,0.493-3.993c-0.278-1.276-0.196-1.534-0.723-2.254
				c-0.532-0.72-1.42-1.436,0.192-1.773c0.537-0.168,1.114-0.508,1.429,0.57c0.311,1.08,1.666,2.414,2.171,3.051
				c0.504,0.635,0.319,2.114-0.204,2.842c-0.521,0.726-1.211,1.776-2.282,1.801C266.419,115.967,266.321,115.951,266.412,115.702z"
				/>
		</g>
		<g>
			<path fill="#9DC2C4" d="M270.454,115.564c0.455-1.276,0.912-2.708,0.432-5.021c-0.479-2.314-1.373-2.716-0.99-2.84
				c0.38-0.123,1.235-0.129,1.452-0.132c0.212-0.002,1.406,1.121,1.549,3.875c0.147,2.755-0.355,3.706-1.295,3.963
				C270.661,115.67,270.454,115.564,270.454,115.564z"/>
			<path fill="#9DC2C4" d="M273.397,114.956c0.633-2.06,0.731-2.556,0.43-4.089c-0.302-1.53-0.402-2.433-1.023-3.359
				c0.682-0.364,2.037-0.382,2.037-0.382s0.97,0.448,1.216,3.711c0.245,3.262-0.493,3.596-0.746,3.943
				C275.057,115.124,273.397,114.956,273.397,114.956z"/>
			<path fill="#9DC2C4" d="M277.261,114.44c0.381-1.615,0.549-2.962-0.24-5.158c-0.79-2.193-1.031-2.278-0.651-2.421
				c0.381-0.142,2.354-0.805,2.797,0.709c0.443,1.512,1.073,2.543,0.686,4.954c-0.387,2.41-0.618,2.021-1.059,2.079
				C278.353,114.663,277.14,114.96,277.261,114.44z"/>
			<path fill="#9DC2C4" d="M280.292,114.287c0.444-1.719,0.337-1.102,0.275-2.56c-0.063-1.46-0.191-2.572-0.599-3.749
				c-0.407-1.177-0.688-1.579-0.145-1.754c0.545-0.176,1.616-0.362,1.913-0.248c0.296,0.116,0.849,1.083,0.916,2.416
				c0.071,1.332,0.468,2.368,0.619,3.229c0.149,0.861,0.396,2.787-0.725,2.997C281.42,114.827,280.204,114.632,280.292,114.287z"/>
			<path fill="#9DC2C4" d="M282.786,105.952c-0.072-0.803,2.541-0.733,2.686-0.514c0.146,0.219,0.153,4.788-1.07,5.866
				c-0.527,0.494-0.646-0.619-0.581-2.234C283.889,107.457,282.813,106.271,282.786,105.952z"/>
			<path fill="#9DC2C4" d="M284.357,113.935c0.507-1.849,0.963-2.358,1.269-3.688c0.307-1.333,0.362-5.034,0.961-5.126
				c0.597-0.09,2.947-0.574,2.593,1.031c-0.354,1.604-0.275,2.846-0.82,4.887c-0.545,2.042-0.439,3.177-1.94,3.383
				C284.922,114.626,284.154,114.679,284.357,113.935z"/>
			<path fill="#9DC2C4" d="M288.414,113.771c0.491-1.638,0.614-2.589,1.159-4.065c0.548-1.479,0.408-3.401,0.417-4.248
				c0.012-0.846,2.256-1.307,2.48-0.226c0.224,1.079,0.302,3.091,0.104,4.859c-0.193,1.768,0.1,2.847-0.2,3.463
				c-0.3,0.618-1.24,0.49-1.403-0.495c-0.161-0.985-0.48-0.171-0.567,0.623C290.317,114.477,288.253,114.299,288.414,113.771z"/>
			<path fill="#9DC2C4" d="M293.382,113.25c0.763-2.476,0.598-3.842,0.276-5.58c-0.321-1.738-1.427-3.294,0.147-3.253
				c1.577,0.042,1.938,0.886,2.126,4.483c0.188,3.599-0.5,4.481-1.486,4.626C293.458,113.672,293.275,113.604,293.382,113.25z"/>
			<path fill="#9DC2C4" d="M295.839,112.952c0.559-1.266,1.022-2.271,0.776-4.374c-0.247-2.102-0.589-3.161-0.943-3.879
				c-0.352-0.717,1.64-0.221,2.115-0.085c0.479,0.134,1.311,2.416,0.997,5.211c-0.315,2.797-0.361,3.069-1.7,3.281
				S295.736,113.188,295.839,112.952z"/>
			<path fill="#9DC2C4" d="M299.16,112.559c0.526-1.696,0.742-2.62,0.382-4.981c-0.359-2.36-1.2-3.157-0.913-3.148
				c0.286,0.01,1.661-0.188,2.143,0.001c0.479,0.188,1.666,1.812,1.644,4.689c-0.022,2.876-0.581,3.212-1.14,3.336
				C300.715,112.578,298.987,113.111,299.16,112.559z"/>
			<path fill="#9DC2C4" d="M302.707,111.77c0.411-1.148,0.792-2.322,0.547-4.229c-0.247-1.906-2.25-3.526-0.969-3.554
				c1.283-0.028,2.496-0.442,2.961,0.354c0.465,0.796,1.899,3.575,1.025,6.119c-0.465,1.166-1.014,1.219-1.996,1.415
				C303.294,112.072,302.585,112.111,302.707,111.77z"/>
			<path fill="#9DC2C4" d="M306.729,111.367c0.414-1.136,0.768-2.715,0.49-3.993c-0.277-1.278-0.193-1.535-0.723-2.255
				c-0.53-0.719-1.417-1.437,0.194-1.773c0.538-0.169,1.114-0.508,1.427,0.571c0.314,1.079,1.668,2.414,2.172,3.05
				c0.505,0.635,0.32,2.114-0.203,2.841c-0.523,0.729-1.212,1.777-2.281,1.8C306.736,111.633,306.638,111.615,306.729,111.367z"/>
		</g>
	</g>
	<g>
		<g>
			<path fill="#9DC2C4" d="M247.448,161.07c-0.089-1.35-0.241-2.85-1.604-4.779c-1.357-1.932-2.338-1.939-2.038-2.209
				c0.302-0.265,1.083-0.611,1.279-0.701c0.195-0.086,1.736,0.471,2.967,2.939c1.231,2.471,1.147,3.541,0.39,4.153
				C247.68,161.086,247.448,161.07,247.448,161.07z"/>
			<path fill="#9DC2C4" d="M249.908,159.337c-0.239-2.14-0.349-2.634-1.233-3.919c-0.89-1.282-1.339-2.07-2.277-2.673
				c0.479-0.607,1.716-1.163,1.716-1.163s1.067,0.025,2.592,2.918c1.523,2.896,0.981,3.499,0.887,3.916
				S249.908,159.337,249.908,159.337z"/>
			<path fill="#9DC2C4" d="M253.245,157.328c-0.292-1.635-0.673-2.936-2.271-4.634c-1.601-1.698-1.854-1.682-1.563-1.964
				c0.293-0.279,1.839-1.675,2.848-0.465c1.007,1.213,1.996,1.908,2.604,4.273c0.604,2.363,0.236,2.097-0.144,2.328
				C254.337,157.096,253.342,157.854,253.245,157.328z"/>
			<path fill="#9DC2C4" d="M255.965,155.98c-0.276-1.752-0.13-1.145-0.769-2.457c-0.638-1.313-1.197-2.285-2.04-3.201
				c-0.843-0.917-1.261-1.174-0.83-1.552c0.427-0.375,1.337-0.976,1.655-0.988c0.317-0.011,1.21,0.655,1.804,1.852
				c0.593,1.196,1.37,1.987,1.852,2.714c0.48,0.73,1.474,2.398,0.527,3.038C257.217,156.025,256.021,156.333,255.965,155.98z"/>
			<path fill="#9DC2C4" d="M254.934,147.344c-0.385-0.711,2.039-1.687,2.259-1.543s2.048,4.333,1.356,5.807
				c-0.287,0.663-0.839-0.311-1.422-1.815C256.545,148.285,255.088,147.623,254.934,147.344z"/>
			<path fill="#9DC2C4" d="M259.555,154.037c-0.271-1.9-0.058-2.544-0.305-3.887c-0.25-1.345-1.674-4.762-1.16-5.084
				c0.512-0.319,2.475-1.699,2.788-0.086c0.315,1.611,0.883,2.721,1.196,4.809c0.311,2.089,0.857,3.09-0.434,3.873
				C260.348,154.447,259.663,154.801,259.555,154.037z"/>
			<path fill="#9DC2C4" d="M263.209,152.271c-0.2-1.697-0.469-2.616-0.555-4.189c-0.087-1.572-0.98-3.281-1.309-4.061
				c-0.324-0.783,1.549-2.1,2.186-1.196c0.635,0.899,1.506,2.716,2.031,4.415c0.525,1.696,1.228,2.572,1.195,3.256
				c-0.03,0.685-0.943,0.943-1.483,0.104c-0.541-0.839-0.509,0.036-0.273,0.798S263.275,152.822,263.209,152.271z"/>
			<path fill="#9DC2C4" d="M267.562,149.814c-0.287-2.572-0.984-3.76-1.972-5.227c-0.985-1.467-2.619-2.451-1.159-3.043
				c1.463-0.588,2.132,0.041,3.737,3.268c1.604,3.225,1.325,4.308,0.477,4.832C267.798,150.173,267.601,150.184,267.562,149.814z"/>
			<path fill="#9DC2C4" d="M269.695,148.565c0.012-1.384,0.034-2.495-1.029-4.323c-1.063-1.831-1.8-2.663-2.408-3.182
				c-0.61-0.518,1.414-0.855,1.905-0.921c0.489-0.063,2.163,1.692,2.988,4.384c0.823,2.691,0.891,2.959-0.253,3.688
				C269.758,148.938,269.691,148.82,269.695,148.565z"/>
			<path fill="#9DC2C4" d="M272.583,146.881c-0.192-1.764-0.36-2.699-1.632-4.721c-1.269-2.022-2.357-2.418-2.09-2.525
				c0.266-0.105,1.448-0.832,1.965-0.85c0.515-0.02,2.249,0.998,3.375,3.645c1.125,2.648,0.746,3.179,0.282,3.513
				C274.02,146.279,272.646,147.455,272.583,146.881z"/>
			<path fill="#9DC2C4" d="M275.524,144.746c-0.08-1.218-0.198-2.447-1.186-4.098c-0.981-1.648-3.467-2.338-2.301-2.873
				c1.166-0.537,2.11-1.401,2.855-0.857c0.746,0.547,3.165,2.527,3.379,5.207c0.038,1.257-0.445,1.521-1.269,2.094
				C276.184,144.791,275.548,145.105,275.524,144.746z"/>
			<path fill="#9DC2C4" d="M279.052,142.773c-0.07-1.207-0.376-2.794-1.139-3.857c-0.763-1.062-0.791-1.33-1.562-1.781
				c-0.773-0.446-1.873-0.752-0.528-1.703c0.425-0.369,0.818-0.91,1.536-0.045s2.492,1.553,3.207,1.932
				c0.716,0.383,1.136,1.814,0.944,2.688c-0.189,0.875-0.403,2.114-1.375,2.563C279.164,143.015,279.067,143.038,279.052,142.773z"
				/>
		</g>
		<g>
			<path fill="#9DC2C4" d="M282.704,141.037c-0.091-1.35-0.241-2.848-1.604-4.777c-1.36-1.933-2.34-1.945-2.04-2.211
				c0.3-0.264,1.083-0.61,1.279-0.697c0.197-0.088,1.738,0.467,2.967,2.938c1.229,2.467,1.147,3.539,0.389,4.15
				C282.937,141.053,282.704,141.037,282.704,141.037z"/>
			<path fill="#9DC2C4" d="M285.162,139.307c-0.239-2.142-0.347-2.637-1.233-3.92c-0.887-1.284-1.338-2.072-2.276-2.676
				c0.48-0.604,1.715-1.161,1.715-1.161s1.068,0.025,2.594,2.921c1.523,2.894,0.98,3.495,0.887,3.914
				C286.751,138.801,285.162,139.307,285.162,139.307z"/>
			<path fill="#9DC2C4" d="M288.502,137.297c-0.295-1.636-0.676-2.937-2.274-4.637c-1.599-1.696-1.854-1.68-1.563-1.962
				c0.292-0.282,1.839-1.676,2.849-0.464c1.009,1.211,1.995,1.906,2.603,4.271c0.604,2.363,0.236,2.1-0.144,2.328
				C289.59,137.065,288.597,137.821,288.502,137.297z"/>
			<path fill="#9DC2C4" d="M291.221,135.949c-0.279-1.753-0.131-1.146-0.768-2.459c-0.641-1.313-1.2-2.282-2.041-3.199
				c-0.843-0.919-1.262-1.176-0.832-1.551c0.429-0.378,1.339-0.977,1.655-0.991c0.317-0.013,1.21,0.656,1.803,1.853
				c0.594,1.195,1.373,1.986,1.854,2.715c0.479,0.731,1.472,2.398,0.526,3.037C292.47,135.994,291.276,136.3,291.221,135.949z"/>
			<path fill="#9DC2C4" d="M290.188,127.311c-0.385-0.709,2.039-1.686,2.259-1.541c0.222,0.141,2.049,4.331,1.356,5.805
				c-0.286,0.664-0.839-0.31-1.423-1.816C291.8,128.25,290.342,127.592,290.188,127.311z"/>
			<path fill="#9DC2C4" d="M294.809,134.007c-0.271-1.899-0.056-2.546-0.305-3.89c-0.25-1.344-1.674-4.762-1.161-5.084
				c0.514-0.32,2.477-1.699,2.791-0.086c0.315,1.611,0.881,2.719,1.193,4.809s0.861,3.089-0.434,3.877
				C295.602,134.415,294.918,134.771,294.809,134.007z"/>
			<path fill="#9DC2C4" d="M298.464,132.24c-0.2-1.697-0.466-2.617-0.555-4.191c-0.087-1.574-0.98-3.281-1.308-4.061
				c-0.326-0.782,1.548-2.098,2.185-1.196c0.635,0.901,1.508,2.716,2.031,4.416c0.526,1.698,1.224,2.571,1.195,3.255
				c-0.029,0.688-0.943,0.945-1.484,0.107c-0.54-0.842-0.509,0.033-0.272,0.797C300.492,132.13,298.528,132.788,298.464,132.24z"/>
			<path fill="#9DC2C4" d="M302.814,129.784c-0.285-2.575-0.983-3.761-1.97-5.229c-0.984-1.467-2.619-2.451-1.159-3.042
				c1.463-0.589,2.131,0.042,3.736,3.267c1.604,3.227,1.325,4.311,0.477,4.835C303.051,130.141,302.856,130.15,302.814,129.784z"/>
			<path fill="#9DC2C4" d="M304.948,128.533c0.011-1.385,0.035-2.492-1.026-4.321c-1.064-1.829-1.802-2.666-2.411-3.183
				c-0.609-0.519,1.415-0.855,1.906-0.921c0.491-0.067,2.164,1.694,2.989,4.384c0.823,2.691,0.891,2.96-0.253,3.686
				C305.01,128.906,304.948,128.789,304.948,128.533z"/>
			<path fill="#9DC2C4" d="M307.838,126.849c-0.19-1.766-0.362-2.7-1.632-4.722s-2.357-2.418-2.092-2.524
				c0.267-0.104,1.449-0.835,1.966-0.853c0.515-0.018,2.25,1,3.376,3.646c1.125,2.646,0.747,3.181,0.282,3.516
				C309.273,126.246,307.9,127.426,307.838,126.849z"/>
			<path fill="#9DC2C4" d="M310.778,124.713c-0.082-1.218-0.198-2.445-1.182-4.096c-0.987-1.65-3.469-2.34-2.305-2.875
				c1.167-0.537,2.112-1.398,2.856-0.854c0.746,0.546,3.168,2.523,3.379,5.205c0.037,1.256-0.445,1.521-1.268,2.093
				C311.437,124.756,310.803,125.074,310.778,124.713z"/>
			<path fill="#9DC2C4" d="M314.307,122.741c-0.071-1.206-0.375-2.795-1.14-3.856c-0.763-1.064-0.789-1.332-1.562-1.781
				c-0.771-0.448-1.871-0.752-0.527-1.705c0.426-0.369,0.818-0.908,1.536-0.043s2.491,1.55,3.206,1.934
				c0.716,0.38,1.137,1.811,0.946,2.687c-0.191,0.875-0.405,2.111-1.376,2.558C314.42,122.984,314.324,123.006,314.307,122.741z"/>
		</g>
	</g>
	<g>
		<g>
			<path fill="#9DC2C4" d="M787.152,26.619c-1.207-0.612-2.525-1.339-3.768-3.349c-1.242-2.009-0.867-2.914-1.23-2.742
				s-0.988,0.756-1.146,0.902c-0.156,0.146-0.25,1.781,1.539,3.881c1.789,2.101,2.807,2.445,3.666,1.987
				C787.076,26.837,787.152,26.619,787.152,26.619z"/>
			<path fill="#9DC2C4" d="M784.596,28.201c-1.875-1.059-2.287-1.353-3.123-2.672c-0.834-1.32-1.381-2.043-1.566-3.142
				c-0.746,0.203-1.742,1.123-1.742,1.123s-0.396,0.991,1.668,3.529c2.066,2.538,2.832,2.275,3.254,2.35
				C783.508,29.465,784.596,28.201,784.596,28.201z"/>
			<path fill="#9DC2C4" d="M781.436,30.484c-1.387-0.91-2.436-1.772-3.371-3.91c-0.934-2.137-0.82-2.364-1.193-2.206
				c-0.373,0.159-2.262,1.034-1.543,2.438c0.719,1.402,0.971,2.584,2.908,4.07c1.938,1.484,1.838,1.042,2.199,0.782
				C780.795,31.396,781.883,30.777,781.436,30.484z"/>
			<path fill="#9DC2C4" d="M779.131,32.457c-1.504-0.942-1.002-0.569-1.961-1.671c-0.957-1.102-1.629-1.999-2.143-3.133
				c-0.514-1.135-0.588-1.62-1.102-1.373c-0.514,0.246-1.422,0.847-1.559,1.135c-0.135,0.287,0.129,1.37,0.994,2.385
				c0.869,1.015,1.291,2.04,1.773,2.769s1.625,2.295,2.586,1.676C778.682,33.625,779.432,32.646,779.131,32.457z"/>
			<path fill="#9DC2C4" d="M771.588,28.119c-0.502-0.632-2.35,1.215-2.303,1.474c0.045,0.258,3.182,3.583,4.809,3.523
				c0.723-0.003,0.043-0.894-1.113-2.02C771.822,29.971,771.787,28.37,771.588,28.119z"/>
			<path fill="#9DC2C4" d="M775.936,34.995c-1.641-0.994-2.32-1.049-3.459-1.806c-1.137-0.756-3.721-3.407-4.219-3.061
				c-0.496,0.346-2.533,1.61-1.176,2.532c1.361,0.921,2.158,1.878,3.957,2.986c1.799,1.106,2.504,2.002,3.732,1.121
				C776.002,35.885,776.596,35.395,775.936,34.995z"/>
			<path fill="#9DC2C4" d="M772.877,37.666c-1.482-0.851-2.223-1.457-3.637-2.154c-1.414-0.697-2.633-2.189-3.223-2.797
				c-0.592-0.605-2.537,0.601-1.957,1.541c0.58,0.938,1.906,2.452,3.264,3.601s1.887,2.137,2.527,2.377
				c0.643,0.241,1.238-0.499,0.678-1.325c-0.561-0.826,0.232-0.454,0.842,0.063C771.98,39.487,773.357,37.94,772.877,37.666z"/>
			<path fill="#9DC2C4" d="M768.91,40.705c-2.256-1.273-3.072-2.38-4.035-3.862c-0.963-1.483-1.229-3.374-2.344-2.26
				c-1.117,1.113-0.799,1.975,1.539,4.716c2.338,2.741,3.443,2.911,4.26,2.337S769.232,40.886,768.91,40.705z"/>
			<path fill="#9DC2C4" d="M766.924,42.177c-1.279-0.533-2.307-0.946-3.572-2.642c-1.268-1.696-1.746-2.7-1.982-3.464
				c-0.236-0.763-1.342,0.966-1.596,1.392c-0.252,0.426,0.709,2.655,2.861,4.469s2.373,1.98,3.49,1.214
				S767.16,42.275,766.924,42.177z"/>
			<path fill="#9DC2C4" d="M764.242,44.174c-1.549-0.871-2.342-1.393-3.703-3.354c-1.361-1.961-1.301-3.118-1.502-2.914
				c-0.201,0.204-1.336,1.005-1.555,1.474c-0.221,0.467,0.035,2.46,2.029,4.535c1.994,2.073,2.631,1.934,3.121,1.638
				C763.125,45.257,764.746,44.457,764.242,44.174z"/>
			<path fill="#9DC2C4" d="M761.123,46.041c-1.088-0.552-2.172-1.141-3.305-2.695c-1.131-1.553-0.789-4.108-1.74-3.246
				c-0.951,0.861-2.115,1.394-1.906,2.292c0.209,0.9,1.08,3.903,3.463,5.149c1.141,0.529,1.574,0.188,2.422-0.344
				C760.906,46.665,761.445,46.204,761.123,46.041z"/>
			<path fill="#9DC2C4" d="M757.926,48.512c-1.082-0.539-2.426-1.442-3.102-2.56c-0.678-1.119-0.914-1.249-1.025-2.136
				c-0.109-0.887,0.043-2.018-1.361-1.154c-0.506,0.248-1.156,0.397-0.643,1.396c0.514,0.999,0.449,2.9,0.52,3.707
				c0.07,0.808,1.223,1.756,2.102,1.924s2.102,0.457,2.895-0.261S758.162,48.63,757.926,48.512z"/>
		</g>
		<g>
			<path fill="#9DC2C4" d="M754.896,51.19c-1.207-0.612-2.525-1.339-3.768-3.349c-1.242-2.009-0.869-2.915-1.23-2.743
				c-0.363,0.172-0.988,0.756-1.146,0.902c-0.156,0.146-0.25,1.781,1.539,3.881c1.789,2.1,2.807,2.444,3.666,1.986
				C754.82,51.409,754.896,51.19,754.896,51.19z"/>
			<path fill="#9DC2C4" d="M752.34,52.772c-1.875-1.059-2.287-1.353-3.123-2.672c-0.834-1.319-1.381-2.044-1.566-3.142
				c-0.746,0.203-1.742,1.122-1.742,1.122s-0.396,0.991,1.67,3.53c2.064,2.538,2.83,2.274,3.252,2.351
				C751.252,54.036,752.34,52.772,752.34,52.772z"/>
			<path fill="#9DC2C4" d="M749.18,55.055c-1.387-0.911-2.436-1.772-3.371-3.91c-0.936-2.138-0.818-2.364-1.193-2.206
				c-0.373,0.158-2.262,1.034-1.543,2.437c0.719,1.403,0.971,2.585,2.908,4.069c1.938,1.485,1.838,1.042,2.199,0.782
				C748.541,55.966,749.627,55.348,749.18,55.055z"/>
			<path fill="#9DC2C4" d="M746.875,57.028c-1.504-0.943-1.002-0.569-1.961-1.67c-0.957-1.102-1.629-2-2.143-3.133
				c-0.514-1.134-0.588-1.619-1.102-1.373c-0.516,0.246-1.422,0.848-1.559,1.135c-0.135,0.288,0.129,1.37,0.996,2.385
				c0.865,1.015,1.287,2.041,1.771,2.77c0.482,0.729,1.627,2.295,2.586,1.676C746.426,58.196,747.176,57.217,746.875,57.028z"/>
			<path fill="#9DC2C4" d="M739.332,52.69c-0.5-0.632-2.348,1.215-2.303,1.474c0.045,0.259,3.182,3.583,4.809,3.524
				c0.723-0.002,0.043-0.894-1.113-2.02C739.566,54.542,739.531,52.941,739.332,52.69z"/>
			<path fill="#9DC2C4" d="M743.68,59.566c-1.641-0.993-2.32-1.049-3.457-1.805c-1.139-0.756-3.725-3.407-4.221-3.061
				s-2.535,1.61-1.176,2.532s2.158,1.878,3.957,2.985c1.799,1.106,2.504,2.003,3.734,1.121
				C743.746,60.456,744.34,59.966,743.68,59.566z"/>
			<path fill="#9DC2C4" d="M740.621,62.236c-1.482-0.851-2.225-1.456-3.637-2.154c-1.414-0.698-2.633-2.19-3.223-2.796
				c-0.592-0.607-2.537,0.601-1.957,1.54c0.58,0.938,1.906,2.452,3.264,3.601s1.885,2.136,2.527,2.377
				c0.643,0.242,1.238-0.498,0.678-1.324s0.232-0.454,0.842,0.062C739.725,64.059,741.1,62.512,740.621,62.236z"/>
			<path fill="#9DC2C4" d="M736.654,65.275c-2.254-1.273-3.072-2.379-4.035-3.862s-1.229-3.373-2.344-2.26
				c-1.117,1.114-0.799,1.976,1.539,4.716c2.338,2.741,3.445,2.911,4.26,2.337C736.891,65.632,736.977,65.457,736.654,65.275z"/>
			<path fill="#9DC2C4" d="M734.668,66.748c-1.277-0.534-2.307-0.946-3.572-2.642c-1.268-1.695-1.746-2.7-1.982-3.463
				s-1.342,0.965-1.596,1.391c-0.254,0.426,0.711,2.655,2.861,4.47c2.152,1.813,2.373,1.979,3.49,1.213
				C734.986,66.95,734.904,66.847,734.668,66.748z"/>
			<path fill="#9DC2C4" d="M731.984,68.745c-1.549-0.87-2.34-1.393-3.701-3.354c-1.363-1.96-1.301-3.118-1.502-2.915
				c-0.201,0.204-1.336,1.006-1.557,1.474c-0.219,0.468,0.037,2.461,2.031,4.536c1.994,2.073,2.631,1.934,3.121,1.638
				C730.869,69.828,732.49,69.028,731.984,68.745z"/>
			<path fill="#9DC2C4" d="M728.867,70.611c-1.088-0.552-2.172-1.142-3.305-2.694c-1.133-1.554-0.789-4.108-1.74-3.247
				s-2.117,1.394-1.906,2.292c0.209,0.898,1.08,3.902,3.463,5.148c1.141,0.528,1.574,0.188,2.422-0.344
				C728.65,71.235,729.189,70.776,728.867,70.611z"/>
			<path fill="#9DC2C4" d="M725.67,73.083c-1.082-0.54-2.424-1.442-3.102-2.561s-0.916-1.249-1.025-2.135
				c-0.109-0.886,0.043-2.017-1.361-1.154c-0.506,0.248-1.156,0.397-0.643,1.396s0.449,2.9,0.52,3.708s1.223,1.755,2.102,1.923
				c0.879,0.168,2.102,0.457,2.895-0.261S725.906,73.202,725.67,73.083z"/>
		</g>
	</g>
	<g>
		<g>
			<path fill="#9DC2C4" d="M801.527,67.055c-0.857-1.047-1.771-2.243-2.099-4.583c-0.327-2.339,0.381-3.017-0.021-3.006
				c-0.402,0.011-1.209,0.294-1.413,0.363c-0.202,0.07-0.946,1.53-0.155,4.173s1.584,3.368,2.555,3.295
				C801.37,67.225,801.527,67.055,801.527,67.055z"/>
			<path fill="#9DC2C4" d="M798.55,67.473c-1.289-1.725-1.548-2.16-1.781-3.703c-0.231-1.545-0.44-2.428-0.168-3.508
				c-0.765-0.115-2.046,0.325-2.046,0.325s-0.763,0.747,0.104,3.902c0.869,3.155,1.676,3.224,2.031,3.462
				C797.045,68.19,798.55,67.473,798.55,67.473z"/>
			<path fill="#9DC2C4" d="M794.738,68.288c-0.902-1.392-1.516-2.603-1.51-4.937c0.006-2.332,0.201-2.494-0.204-2.5
				c-0.405-0.004-2.486,0.036-2.394,1.609c0.092,1.573-0.153,2.757,1.021,4.896s1.262,1.694,1.697,1.602
				C793.784,68.865,795.029,68.737,794.738,68.288z"/>
			<path fill="#9DC2C4" d="M791.834,69.166c-0.997-1.469-0.688-0.925-1.122-2.319c-0.432-1.395-0.686-2.485-0.698-3.731
				c-0.013-1.245,0.114-1.719-0.455-1.7s-1.643,0.202-1.884,0.411c-0.239,0.209-0.435,1.306-0.051,2.584
				c0.386,1.278,0.359,2.387,0.507,3.248c0.148,0.861,0.563,2.756,1.691,2.576C790.952,70.054,792.033,69.459,791.834,69.166z"/>
			<path fill="#9DC2C4" d="M786.678,62.156c-0.204-0.781-2.64,0.165-2.701,0.421c-0.063,0.255,1.469,4.562,2.981,5.163
				c0.662,0.288,0.399-0.801-0.205-2.297C786.146,63.945,786.76,62.466,786.678,62.156z"/>
			<path fill="#9DC2C4" d="M787.887,70.201c-1.102-1.57-1.701-1.896-2.438-3.047c-0.735-1.149-2.032-4.617-2.628-4.5
				c-0.593,0.116-2.967,0.452-2.096,1.843c0.875,1.392,1.218,2.589,2.418,4.327c1.201,1.737,1.485,2.842,2.965,2.529
				C787.589,71.042,788.33,70.833,787.887,70.201z"/>
			<path fill="#9DC2C4" d="M784.012,71.413c-1.015-1.376-1.447-2.229-2.461-3.438c-1.013-1.208-1.527-3.064-1.822-3.858
				c-0.298-0.793-2.564-0.472-2.412,0.621c0.153,1.094,0.757,3.012,1.536,4.611c0.779,1.599,0.866,2.716,1.354,3.194
				c0.491,0.479,1.335,0.042,1.154-0.939c-0.18-0.981,0.396-0.321,0.746,0.396C782.457,72.719,784.34,71.857,784.012,71.413z"/>
			<path fill="#9DC2C4" d="M779.156,72.596c-1.552-2.074-1.853-3.416-2.137-5.16c-0.284-1.746,0.234-3.583-1.234-3.014
				c-1.471,0.568-1.527,1.486-0.492,4.937c1.035,3.451,1.979,4.052,2.957,3.855S779.379,72.891,779.156,72.596z"/>
			<path fill="#9DC2C4" d="M776.745,73.143c-0.956-1.004-1.729-1.795-2.205-3.857c-0.477-2.063-0.51-3.174-0.418-3.969
				c0.091-0.794-1.618,0.344-2.021,0.631c-0.402,0.288-0.421,2.716,0.817,5.243c1.239,2.527,1.375,2.769,2.705,2.517
				C776.955,73.456,776.922,73.328,776.745,73.143z"/>
			<path fill="#9DC2C4" d="M773.486,73.891c-1.067-1.421-1.582-2.219-2.038-4.562c-0.456-2.344,0.065-3.378-0.2-3.272
				c-0.267,0.105-1.628,0.382-2.018,0.723c-0.39,0.339-0.959,2.266,0.03,4.968c0.989,2.701,1.628,2.83,2.196,2.757
				C772.027,74.432,773.833,74.352,773.486,73.891z"/>
			<path fill="#9DC2C4" d="M769.879,74.342c-0.773-0.943-1.527-1.92-1.938-3.799c-0.409-1.877,0.933-4.077-0.285-3.672
				c-1.217,0.405-2.497,0.424-2.668,1.329c-0.171,0.908-0.583,4.008,1.095,6.108c0.831,0.943,1.365,0.807,2.355,0.66
				C769.43,74.825,770.108,74.621,769.879,74.342z"/>
			<path fill="#9DC2C4" d="M765.957,75.315c-0.773-0.93-1.639-2.297-1.807-3.593c-0.17-1.297-0.334-1.512-0.078-2.367
				c0.257-0.856,0.853-1.83-0.781-1.605c-0.563,0.023-1.219-0.103-1.15,1.02c0.067,1.12-0.758,2.834-1.019,3.602
				s0.412,2.1,1.148,2.607s1.739,1.266,2.754,0.928C766.04,75.568,766.126,75.519,765.957,75.315z"/>
		</g>
		<g>
			<path fill="#9DC2C4" d="M762.105,76.546c-0.858-1.047-1.771-2.243-2.099-4.583s0.379-3.018-0.021-3.006
				c-0.401,0.011-1.209,0.293-1.413,0.363c-0.201,0.07-0.945,1.529-0.154,4.172s1.584,3.368,2.555,3.295
				C761.947,76.715,762.105,76.546,762.105,76.546z"/>
			<path fill="#9DC2C4" d="M759.128,76.964c-1.289-1.725-1.548-2.16-1.781-3.704c-0.232-1.544-0.44-2.428-0.167-3.508
				c-0.766-0.114-2.047,0.325-2.047,0.325s-0.763,0.747,0.105,3.904c0.867,3.153,1.674,3.222,2.029,3.461
				S759.128,76.964,759.128,76.964z"/>
			<path fill="#9DC2C4" d="M755.316,77.779c-0.902-1.392-1.516-2.604-1.511-4.937c0.006-2.333,0.204-2.493-0.203-2.5
				c-0.405-0.006-2.486,0.036-2.395,1.608c0.093,1.574-0.152,2.758,1.022,4.896c1.175,2.141,1.262,1.694,1.698,1.602
				C754.364,78.355,755.607,78.229,755.316,77.779z"/>
			<path fill="#9DC2C4" d="M752.412,78.656c-0.997-1.469-0.688-0.925-1.122-2.318c-0.432-1.395-0.686-2.487-0.698-3.731
				c-0.014-1.245,0.114-1.719-0.455-1.7c-0.571,0.018-1.643,0.202-1.884,0.41c-0.239,0.209-0.435,1.306-0.049,2.584
				c0.382,1.278,0.355,2.387,0.505,3.249c0.147,0.861,0.564,2.757,1.691,2.575C751.529,79.545,752.61,78.951,752.412,78.656z"/>
			<path fill="#9DC2C4" d="M747.256,71.646c-0.202-0.779-2.639,0.166-2.701,0.421c-0.063,0.256,1.468,4.562,2.981,5.163
				c0.662,0.289,0.399-0.801-0.205-2.298C746.725,73.436,747.337,71.957,747.256,71.646z"/>
			<path fill="#9DC2C4" d="M748.465,79.691c-1.102-1.569-1.701-1.895-2.438-3.045s-2.035-4.619-2.629-4.502
				s-2.969,0.452-2.097,1.844c0.873,1.391,1.219,2.588,2.419,4.326c1.201,1.738,1.484,2.843,2.967,2.531
				C748.166,80.533,748.907,80.324,748.465,79.691z"/>
			<path fill="#9DC2C4" d="M744.59,80.903c-1.015-1.376-1.45-2.229-2.461-3.437c-1.014-1.209-1.527-3.065-1.822-3.858
				c-0.298-0.794-2.564-0.472-2.412,0.621s0.757,3.013,1.535,4.61c0.779,1.6,0.865,2.716,1.355,3.194
				c0.491,0.481,1.334,0.043,1.154-0.938c-0.18-0.982,0.396-0.322,0.745,0.396C743.035,82.21,744.916,81.348,744.59,80.903z"/>
			<path fill="#9DC2C4" d="M739.734,82.086c-1.55-2.073-1.854-3.416-2.137-5.16c-0.284-1.745,0.234-3.582-1.234-3.014
				c-1.472,0.57-1.527,1.487-0.492,4.938s1.98,4.053,2.957,3.854C739.807,82.508,739.956,82.382,739.734,82.086z"/>
			<path fill="#9DC2C4" d="M737.323,82.633c-0.954-1.003-1.729-1.795-2.205-3.857c-0.477-2.063-0.511-3.174-0.419-3.969
				c0.092-0.794-1.617,0.344-2.021,0.631c-0.404,0.288-0.419,2.717,0.817,5.244c1.24,2.526,1.374,2.767,2.705,2.517
				C737.533,82.946,737.5,82.819,737.323,82.633z"/>
			<path fill="#9DC2C4" d="M734.062,83.381c-1.067-1.42-1.579-2.219-2.036-4.562c-0.457-2.344,0.066-3.378-0.199-3.272
				c-0.267,0.105-1.629,0.383-2.02,0.722c-0.389,0.34-0.957,2.268,0.031,4.97c0.99,2.701,1.63,2.83,2.197,2.756
				C732.605,83.922,734.411,83.843,734.062,83.381z"/>
			<path fill="#9DC2C4" d="M730.457,83.832c-0.773-0.943-1.527-1.92-1.939-3.798c-0.41-1.878,0.934-4.077-0.283-3.672
				c-1.219,0.405-2.5,0.422-2.669,1.33c-0.171,0.906-0.584,4.006,1.095,6.106c0.831,0.943,1.365,0.807,2.355,0.661
				C730.007,84.315,730.686,84.112,730.457,83.832z"/>
			<path fill="#9DC2C4" d="M726.535,84.807c-0.773-0.93-1.638-2.297-1.807-3.594c-0.17-1.298-0.336-1.512-0.078-2.367
				c0.257-0.855,0.852-1.829-0.781-1.605c-0.563,0.023-1.219-0.102-1.15,1.02c0.067,1.12-0.758,2.835-1.019,3.603
				s0.411,2.099,1.148,2.606c0.736,0.509,1.739,1.266,2.754,0.928C726.617,85.061,726.703,85.01,726.535,84.807z"/>
		</g>
	</g>
	<g>
		<g>
			<path fill="#9DC2C4" d="M803.813,94.296c-0.604-1.21-1.229-2.581-1.027-4.935c0.199-2.353,1.041-2.855,0.646-2.934
				c-0.394-0.079-1.245,0.017-1.458,0.04c-0.212,0.023-1.263,1.282-1.078,4.034c0.184,2.752,0.795,3.636,1.759,3.781
				C803.622,94.426,803.813,94.296,803.813,94.296z"/>
			<path fill="#9DC2C4" d="M800.817,94.042c-0.874-1.968-1.029-2.45-0.914-4.006c0.118-1.557,0.11-2.465,0.617-3.456
				c-0.722-0.284-2.068-0.139-2.068-0.139s-0.909,0.559-0.767,3.827c0.146,3.27,0.918,3.515,1.211,3.826
				C799.19,94.408,800.817,94.042,800.817,94.042z"/>
			<path fill="#9DC2C4" d="M796.921,93.99c-0.572-1.558-0.899-2.875-0.377-5.148c0.525-2.272,0.753-2.387,0.357-2.482
				c-0.394-0.094-2.433-0.519-2.692,1.036c-0.258,1.555-0.762,2.655-0.091,5.002c0.67,2.346,0.854,1.931,1.299,1.938
				C795.861,94.341,797.104,94.493,796.921,93.99z"/>
			<path fill="#9DC2C4" d="M793.893,94.2c-0.646-1.652-0.465-1.054-0.576-2.51c-0.114-1.456-0.119-2.575,0.146-3.793
				c0.264-1.217,0.494-1.65-0.065-1.758s-1.647-0.168-1.929-0.018c-0.28,0.149-0.714,1.176-0.623,2.508
				c0.09,1.332-0.182,2.407-0.229,3.278c-0.047,0.875-0.063,2.813,1.077,2.888C792.836,94.87,794.022,94.531,793.893,94.2z"/>
			<path fill="#9DC2C4" d="M790.424,86.22c-0.025-0.807-2.611-0.424-2.729-0.189c-0.116,0.234,0.419,4.773,1.76,5.696
				c0.582,0.429,0.568-0.692,0.311-2.286C789.507,87.848,790.434,86.541,790.424,86.22z"/>
			<path fill="#9DC2C4" d="M789.813,94.332c-0.726-1.776-1.235-2.225-1.699-3.51c-0.463-1.285-0.957-4.954-1.563-4.973
				c-0.604-0.018-2.993-0.218-2.451,1.333c0.542,1.55,0.61,2.793,1.395,4.755c0.785,1.96,0.817,3.1,2.33,3.125
				C789.337,95.086,790.105,95.047,789.813,94.332z"/>
			<path fill="#9DC2C4" d="M785.766,94.653c-0.683-1.568-0.916-2.495-1.635-3.899c-0.719-1.401-0.808-3.327-0.919-4.166
				c-0.113-0.839-2.396-1.03-2.49,0.07c-0.094,1.099,0.07,3.104,0.474,4.836c0.403,1.731,0.24,2.841,0.611,3.415
				c0.372,0.577,1.291,0.339,1.334-0.659c0.043-0.997,0.456-0.225,0.639,0.552C783.959,95.58,785.988,95.161,785.766,94.653z"/>
			<path fill="#9DC2C4" d="M780.77,94.728c-1.052-2.367-1.049-3.744-0.936-5.508c0.109-1.764,1.023-3.44-0.535-3.211
				c-1.561,0.229-1.818,1.11-1.576,4.705s1.028,4.391,2.026,4.416C780.745,95.154,780.921,95.065,780.77,94.728z"/>
			<path fill="#9DC2C4" d="M778.297,94.725c-0.708-1.189-1.288-2.135-1.292-4.25c-0.007-2.117,0.209-3.208,0.473-3.963
				c0.266-0.754-1.652-0.024-2.11,0.166c-0.456,0.191-1.012,2.554-0.366,5.294c0.646,2.739,0.724,3.005,2.077,3.055
				C778.431,95.077,778.429,94.944,778.297,94.725z"/>
			<path fill="#9DC2C4" d="M774.954,94.729c-0.724-1.622-1.05-2.515-0.974-4.9s0.816-3.278,0.53-3.234
				c-0.282,0.043-1.671,0.012-2.126,0.256c-0.455,0.243-1.438,1.996-1.074,4.85c0.365,2.853,0.958,3.121,1.529,3.176
				C773.41,94.933,775.188,95.256,774.954,94.729z"/>
			<path fill="#9DC2C4" d="M771.337,94.369c-0.545-1.092-1.063-2.212-1.045-4.134c0.017-1.922,1.814-3.769,0.536-3.645
				c-1.275,0.125-2.528-0.143-2.897,0.704c-0.366,0.848-1.458,3.777-0.289,6.199c0.602,1.104,1.152,1.09,2.15,1.167
				C770.791,94.74,771.498,94.691,771.337,94.369z"/>
			<path fill="#9DC2C4" d="M767.297,94.446c-0.547-1.079-1.088-2.604-0.964-3.905c0.123-1.302,0.01-1.548,0.45-2.325
				c0.44-0.778,1.236-1.594-0.403-1.739c-0.555-0.103-1.167-0.371-1.351,0.737c-0.182,1.109-1.368,2.596-1.794,3.286
				c-0.424,0.691-0.064,2.139,0.541,2.798s1.414,1.62,2.479,1.517C767.32,94.711,767.416,94.682,767.297,94.446z"/>
		</g>
		<g>
			<path fill="#9DC2C4" d="M763.267,94.79c-0.603-1.211-1.228-2.581-1.026-4.935c0.2-2.354,1.039-2.858,0.646-2.936
				c-0.392-0.078-1.242,0.018-1.456,0.041c-0.214,0.024-1.265,1.281-1.079,4.034c0.184,2.752,0.796,3.636,1.759,3.779
				C763.075,94.92,763.267,94.79,763.267,94.79z"/>
			<path fill="#9DC2C4" d="M760.271,94.536c-0.874-1.969-1.029-2.45-0.913-4.007c0.117-1.556,0.109-2.464,0.615-3.458
				c-0.721-0.281-2.067-0.137-2.067-0.137s-0.91,0.561-0.766,3.83c0.146,3.268,0.918,3.513,1.212,3.826
				C758.645,94.901,760.271,94.536,760.271,94.536z"/>
			<path fill="#9DC2C4" d="M756.373,94.485c-0.57-1.559-0.896-2.876-0.374-5.15c0.523-2.272,0.752-2.386,0.357-2.482
				c-0.396-0.096-2.433-0.519-2.692,1.038c-0.26,1.554-0.762,2.653-0.092,4.999c0.671,2.347,0.854,1.933,1.299,1.939
				C755.318,94.835,756.557,94.985,756.373,94.485z"/>
			<path fill="#9DC2C4" d="M753.347,94.694c-0.646-1.654-0.465-1.055-0.578-2.511c-0.11-1.456-0.116-2.577,0.148-3.793
				c0.265-1.217,0.495-1.651-0.066-1.759c-0.56-0.109-1.646-0.168-1.928-0.018c-0.279,0.149-0.712,1.176-0.622,2.508
				c0.09,1.331-0.183,2.406-0.229,3.279c-0.048,0.873-0.063,2.814,1.077,2.887C752.29,95.363,753.476,95.026,753.347,94.694z"/>
			<path fill="#9DC2C4" d="M749.877,86.714c-0.023-0.805-2.608-0.425-2.726-0.19c-0.12,0.234,0.417,4.773,1.758,5.696
				c0.582,0.429,0.569-0.69,0.312-2.286C748.962,88.34,749.889,87.035,749.877,86.714z"/>
			<path fill="#9DC2C4" d="M749.269,94.827c-0.724-1.777-1.237-2.227-1.699-3.512c-0.464-1.286-0.958-4.955-1.563-4.974
				c-0.604-0.017-2.994-0.219-2.453,1.332c0.541,1.551,0.613,2.793,1.396,4.755c0.784,1.961,0.815,3.102,2.33,3.127
				C748.79,95.58,749.56,95.542,749.269,94.827z"/>
			<path fill="#9DC2C4" d="M745.221,95.147c-0.682-1.567-0.917-2.495-1.635-3.898c-0.721-1.403-0.809-3.329-0.921-4.167
				c-0.112-0.839-2.394-1.029-2.488,0.07c-0.095,1.099,0.068,3.105,0.474,4.838c0.402,1.732,0.24,2.839,0.611,3.415
				c0.371,0.577,1.29,0.339,1.334-0.659c0.043-0.997,0.456-0.227,0.638,0.552C743.415,96.075,745.441,95.653,745.221,95.147z"/>
			<path fill="#9DC2C4" d="M740.224,95.221c-1.05-2.366-1.046-3.743-0.936-5.508c0.111-1.764,1.024-3.44-0.534-3.211
				c-1.561,0.228-1.818,1.11-1.577,4.704c0.243,3.596,1.03,4.391,2.027,4.417S740.375,95.559,740.224,95.221z"/>
			<path fill="#9DC2C4" d="M737.752,95.218c-0.708-1.189-1.286-2.134-1.292-4.25c-0.007-2.117,0.208-3.209,0.474-3.964
				c0.266-0.754-1.653-0.024-2.11,0.167c-0.458,0.19-1.014,2.554-0.369,5.292c0.646,2.74,0.726,3.005,2.078,3.056
				C737.888,95.571,737.882,95.439,737.752,95.218z"/>
			<path fill="#9DC2C4" d="M734.407,95.222c-0.726-1.622-1.049-2.513-0.973-4.899c0.074-2.387,0.814-3.278,0.532-3.235
				c-0.283,0.043-1.672,0.011-2.128,0.255c-0.455,0.245-1.438,1.998-1.074,4.853c0.364,2.853,0.959,3.121,1.529,3.176
				C732.866,95.426,734.645,95.75,734.407,95.222z"/>
			<path fill="#9DC2C4" d="M730.792,94.861c-0.544-1.091-1.063-2.211-1.047-4.134c0.019-1.922,1.815-3.768,0.539-3.644
				c-1.278,0.125-2.531-0.142-2.898,0.704c-0.368,0.847-1.46,3.776-0.29,6.197c0.602,1.104,1.153,1.089,2.151,1.168
				C730.245,95.232,730.952,95.187,730.792,94.861z"/>
			<path fill="#9DC2C4" d="M726.75,94.94c-0.546-1.079-1.086-2.604-0.962-3.906c0.123-1.303,0.009-1.548,0.449-2.325
				c0.441-0.777,1.237-1.594-0.404-1.738c-0.553-0.104-1.165-0.371-1.349,0.737c-0.183,1.108-1.369,2.596-1.794,3.287
				c-0.425,0.69-0.065,2.139,0.541,2.797c0.606,0.66,1.414,1.62,2.479,1.516C726.773,95.205,726.869,95.176,726.75,94.94z"/>
		</g>
	</g>
	<g>
		<g>
			<path fill="#9DC2C4" d="M797.104,124.287c-0.267-1.326-0.514-2.811,0.295-5.032c0.806-2.22,1.75-2.485,1.389-2.665
				c-0.36-0.18-1.206-0.309-1.419-0.341c-0.211-0.033-1.552,0.908-2.092,3.613c-0.539,2.705-0.179,3.718,0.715,4.109
				C796.887,124.363,797.104,124.287,797.104,124.287z"/>
			<path fill="#9DC2C4" d="M794.278,123.26c-0.33-2.126-0.355-2.633,0.162-4.105c0.521-1.471,0.749-2.35,1.496-3.176
				c-0.622-0.461-1.962-0.67-1.962-0.67s-1.022,0.301-1.734,3.493c-0.713,3.194-0.03,3.634,0.171,4.009
				C792.612,123.191,794.278,123.26,794.278,123.26z"/>
			<path fill="#9DC2C4" d="M790.529,122.195c-0.146-1.652-0.119-3.01,0.979-5.067c1.099-2.059,1.348-2.107,0.992-2.304
				c-0.355-0.193-2.213-1.133-2.87,0.299c-0.653,1.434-1.426,2.364-1.39,4.806c0.035,2.439,0.319,2.087,0.748,2.21
				C789.417,122.259,790.576,122.729,790.529,122.195z"/>
			<path fill="#9DC2C4" d="M787.552,121.609c-0.192-1.764-0.173-1.139,0.098-2.573s0.558-2.517,1.13-3.624
				c0.572-1.106,0.907-1.463,0.395-1.715c-0.511-0.251-1.547-0.592-1.857-0.52c-0.309,0.072-0.996,0.949-1.255,2.258
				c-0.259,1.311-0.802,2.277-1.074,3.107c-0.273,0.83-0.794,2.699,0.288,3.068C786.356,121.98,787.591,121.963,787.552,121.609z"/>
			<path fill="#9DC2C4" d="M786.282,113.002c0.185-0.785-2.41-1.091-2.584-0.895c-0.174,0.197-0.841,4.717,0.214,5.959
				c0.451,0.566,0.729-0.52,0.896-2.126S786.207,113.314,786.282,113.002z"/>
			<path fill="#9DC2C4" d="M783.579,120.674c-0.236-1.904-0.612-2.469-0.727-3.83c-0.11-1.361,0.367-5.034-0.213-5.209
				c-0.578-0.174-2.833-0.992-2.714,0.646c0.118,1.639-0.139,2.857,0.107,4.955c0.248,2.098-0.019,3.206,1.435,3.623
				C782.922,121.278,783.674,121.441,783.579,120.674z"/>
			<path fill="#9DC2C4" d="M779.589,119.93c-0.252-1.69-0.234-2.646-0.563-4.189c-0.33-1.541,0.087-3.422,0.198-4.262
				c0.108-0.838-2.044-1.619-2.423-0.58c-0.377,1.035-0.74,3.014-0.804,4.793c-0.06,1.775-0.507,2.803-0.299,3.457
				c0.209,0.652,1.159,0.662,1.46-0.291c0.301-0.949,0.5-0.098,0.473,0.699C777.604,120.355,779.67,120.477,779.589,119.93z"/>
			<path fill="#9DC2C4" d="M774.744,118.701c-0.397-2.56-0.036-3.887,0.531-5.561c0.566-1.676,1.886-3.055,0.322-3.24
				c-1.566-0.187-2.048,0.596-2.748,4.131c-0.703,3.531-0.151,4.506,0.805,4.791C774.611,119.105,774.804,119.066,774.744,118.701z"
				/>
			<path fill="#9DC2C4" d="M772.358,118.054c-0.375-1.332-0.687-2.397-0.141-4.438c0.546-2.049,1.038-3.045,1.491-3.705
				c0.452-0.66-1.591-0.453-2.082-0.389c-0.489,0.064-1.644,2.201-1.734,5.016c-0.089,2.813-0.083,3.089,1.211,3.49
				C772.396,118.428,772.429,118.301,772.358,118.054z"/>
			<path fill="#9DC2C4" d="M769.129,117.188c-0.275-1.756-0.358-2.701,0.337-4.985c0.695-2.283,1.642-2.952,1.355-2.985
				c-0.285-0.031-1.616-0.423-2.12-0.306c-0.502,0.116-1.908,1.553-2.301,4.403c-0.391,2.85,0.113,3.264,0.649,3.465
				C767.587,116.981,769.22,117.758,769.129,117.188z"/>
			<path fill="#9DC2C4" d="M765.731,115.896c-0.241-1.195-0.451-2.412,0.068-4.264c0.517-1.85,2.733-3.166,1.468-3.378
				s-2.403-0.797-2.98-0.075c-0.575,0.723-2.392,3.266-1.894,5.909c0.291,1.223,0.828,1.351,1.771,1.687
				S765.804,116.25,765.731,115.896z"/>
			<path fill="#9DC2C4" d="M761.811,114.919c-0.248-1.185-0.37-2.796,0.087-4.022c0.458-1.224,0.414-1.49,1.039-2.127
				c0.63-0.636,1.611-1.217,0.064-1.783c-0.507-0.243-1.029-0.662-1.496,0.359c-0.463,1.024-1.995,2.15-2.587,2.707
				c-0.59,0.556-0.619,2.047-0.207,2.842c0.412,0.793,0.943,1.932,1.999,2.11C761.766,115.18,761.864,115.179,761.811,114.919z"/>
		</g>
		<g>
			<path fill="#9DC2C4" d="M757.83,114.201c-0.267-1.328-0.514-2.811,0.294-5.031c0.807-2.222,1.749-2.49,1.389-2.668
				c-0.358-0.177-1.204-0.305-1.418-0.339c-0.21-0.033-1.553,0.908-2.09,3.613c-0.541,2.705-0.181,3.719,0.713,4.107
				C757.61,114.275,757.83,114.201,757.83,114.201z"/>
			<path fill="#9DC2C4" d="M755.005,113.176c-0.331-2.129-0.356-2.634,0.162-4.107c0.519-1.472,0.747-2.35,1.495-3.178
				c-0.622-0.459-1.96-0.671-1.96-0.671s-1.024,0.304-1.737,3.498c-0.711,3.192-0.029,3.629,0.171,4.009
				C753.339,113.104,755.005,113.176,755.005,113.176z"/>
			<path fill="#9DC2C4" d="M751.255,112.11c-0.145-1.653-0.117-3.01,0.979-5.069c1.098-2.058,1.348-2.107,0.992-2.303
				c-0.356-0.195-2.214-1.135-2.87,0.3c-0.655,1.432-1.427,2.362-1.391,4.804c0.036,2.44,0.321,2.088,0.749,2.21
				C750.144,112.174,751.301,112.643,751.255,112.11z"/>
			<path fill="#9DC2C4" d="M748.278,111.523c-0.192-1.766-0.175-1.139,0.096-2.573c0.272-1.435,0.559-2.518,1.131-3.624
				s0.907-1.464,0.396-1.714c-0.514-0.253-1.547-0.592-1.857-0.521c-0.31,0.072-0.995,0.95-1.254,2.259
				c-0.261,1.307-0.804,2.276-1.076,3.106c-0.271,0.83-0.792,2.701,0.287,3.069C747.084,111.896,748.315,111.877,748.278,111.523z"
				/>
			<path fill="#9DC2C4" d="M747.008,102.916c0.187-0.784-2.409-1.091-2.584-0.894c-0.176,0.195-0.84,4.716,0.216,5.958
				c0.45,0.564,0.728-0.52,0.896-2.127C745.7,104.247,746.935,103.228,747.008,102.916z"/>
			<path fill="#9DC2C4" d="M744.306,110.59c-0.236-1.902-0.614-2.473-0.726-3.832c-0.112-1.363,0.365-5.034-0.214-5.21
				c-0.578-0.174-2.834-0.991-2.715,0.648c0.119,1.639-0.137,2.856,0.109,4.954c0.246,2.099-0.021,3.207,1.435,3.626
				C743.647,111.193,744.4,111.355,744.306,110.59z"/>
			<path fill="#9DC2C4" d="M740.314,109.845c-0.251-1.69-0.235-2.649-0.563-4.189c-0.33-1.542,0.085-3.424,0.197-4.264
				c0.109-0.839-2.045-1.617-2.423-0.58c-0.376,1.036-0.742,3.016-0.802,4.794c-0.063,1.777-0.508,2.803-0.3,3.455
				c0.208,0.655,1.157,0.664,1.46-0.288c0.301-0.951,0.5-0.1,0.472,0.698C738.329,110.27,740.397,110.391,740.314,109.845z"/>
			<path fill="#9DC2C4" d="M735.473,108.615c-0.399-2.56-0.039-3.888,0.529-5.562c0.567-1.674,1.886-3.054,0.322-3.24
				c-1.567-0.185-2.046,0.599-2.749,4.131c-0.703,3.534-0.149,4.507,0.807,4.792C735.337,109.021,735.528,108.98,735.473,108.615z"
				/>
			<path fill="#9DC2C4" d="M733.084,107.967c-0.371-1.332-0.686-2.395-0.14-4.439c0.547-2.044,1.037-3.044,1.491-3.703
				c0.451-0.659-1.591-0.455-2.081-0.389c-0.493,0.064-1.645,2.203-1.735,5.014c-0.09,2.813-0.084,3.09,1.211,3.492
				C733.125,108.343,733.152,108.215,733.084,107.967z"/>
			<path fill="#9DC2C4" d="M729.854,107.101c-0.276-1.755-0.357-2.7,0.338-4.985c0.694-2.284,1.642-2.952,1.355-2.985
				c-0.284-0.031-1.616-0.425-2.12-0.307c-0.502,0.117-1.909,1.553-2.301,4.404c-0.392,2.849,0.113,3.262,0.648,3.465
				C728.313,106.896,729.946,107.672,729.854,107.101z"/>
			<path fill="#9DC2C4" d="M726.458,105.809c-0.241-1.195-0.45-2.411,0.066-4.262c0.519-1.852,2.734-3.167,1.47-3.378
				c-1.266-0.212-2.406-0.796-2.981-0.075s-2.394,3.265-1.894,5.908c0.292,1.222,0.828,1.352,1.771,1.688
				C725.833,106.025,726.528,106.165,726.458,105.809z"/>
			<path fill="#9DC2C4" d="M722.535,104.833c-0.247-1.184-0.37-2.796,0.089-4.021c0.458-1.226,0.412-1.492,1.04-2.127
				c0.628-0.636,1.609-1.218,0.063-1.783c-0.508-0.244-1.029-0.663-1.494,0.36c-0.466,1.023-1.998,2.149-2.588,2.706
				c-0.591,0.556-0.62,2.047-0.207,2.841c0.413,0.795,0.944,1.934,1.998,2.109C722.49,105.095,722.59,105.092,722.535,104.833z"/>
		</g>
	</g>
	<g>
		<g>
			<path fill="#9DC2C4" d="M797.104,124.287c-0.267-1.326-0.514-2.811,0.295-5.032c0.806-2.22,1.75-2.485,1.389-2.665
				c-0.36-0.18-1.206-0.309-1.419-0.341c-0.211-0.033-1.552,0.908-2.092,3.613c-0.539,2.705-0.179,3.718,0.715,4.109
				C796.887,124.363,797.104,124.287,797.104,124.287z"/>
			<path fill="#9DC2C4" d="M794.278,123.26c-0.33-2.126-0.355-2.633,0.162-4.105c0.521-1.471,0.749-2.35,1.496-3.176
				c-0.622-0.461-1.962-0.67-1.962-0.67s-1.022,0.301-1.734,3.493c-0.713,3.194-0.03,3.634,0.171,4.009
				C792.612,123.191,794.278,123.26,794.278,123.26z"/>
			<path fill="#9DC2C4" d="M790.529,122.195c-0.146-1.652-0.119-3.01,0.979-5.067c1.099-2.059,1.348-2.107,0.992-2.304
				c-0.355-0.193-2.213-1.133-2.87,0.299c-0.653,1.434-1.426,2.364-1.39,4.806c0.035,2.439,0.319,2.087,0.748,2.21
				C789.417,122.259,790.576,122.729,790.529,122.195z"/>
			<path fill="#9DC2C4" d="M787.552,121.609c-0.192-1.764-0.173-1.139,0.098-2.573s0.558-2.517,1.13-3.624
				c0.572-1.106,0.907-1.463,0.395-1.715c-0.511-0.251-1.547-0.592-1.857-0.52c-0.309,0.072-0.996,0.949-1.255,2.258
				c-0.259,1.311-0.802,2.277-1.074,3.107c-0.273,0.83-0.794,2.699,0.288,3.068C786.356,121.98,787.591,121.963,787.552,121.609z"/>
			<path fill="#9DC2C4" d="M786.282,113.002c0.185-0.785-2.41-1.091-2.584-0.895c-0.174,0.197-0.841,4.717,0.214,5.959
				c0.451,0.566,0.729-0.52,0.896-2.126S786.207,113.314,786.282,113.002z"/>
			<path fill="#9DC2C4" d="M783.579,120.674c-0.236-1.904-0.612-2.469-0.727-3.83c-0.11-1.361,0.367-5.034-0.213-5.209
				c-0.578-0.174-2.833-0.992-2.714,0.646c0.118,1.639-0.139,2.857,0.107,4.955c0.248,2.098-0.019,3.206,1.435,3.623
				C782.922,121.278,783.674,121.441,783.579,120.674z"/>
			<path fill="#9DC2C4" d="M779.589,119.93c-0.252-1.69-0.234-2.646-0.563-4.189c-0.33-1.541,0.087-3.422,0.198-4.262
				c0.108-0.838-2.044-1.619-2.423-0.58c-0.377,1.035-0.74,3.014-0.804,4.793c-0.06,1.775-0.507,2.803-0.299,3.457
				c0.209,0.652,1.159,0.662,1.46-0.291c0.301-0.949,0.5-0.098,0.473,0.699C777.604,120.355,779.67,120.477,779.589,119.93z"/>
			<path fill="#9DC2C4" d="M774.744,118.701c-0.397-2.56-0.036-3.887,0.531-5.561c0.566-1.676,1.886-3.055,0.322-3.24
				c-1.566-0.187-2.048,0.596-2.748,4.131c-0.703,3.531-0.151,4.506,0.805,4.791C774.611,119.105,774.804,119.066,774.744,118.701z"
				/>
			<path fill="#9DC2C4" d="M772.358,118.054c-0.375-1.332-0.687-2.397-0.141-4.438c0.546-2.049,1.038-3.045,1.491-3.705
				c0.452-0.66-1.591-0.453-2.082-0.389c-0.489,0.064-1.644,2.201-1.734,5.016c-0.089,2.813-0.083,3.089,1.211,3.49
				C772.396,118.428,772.429,118.301,772.358,118.054z"/>
			<path fill="#9DC2C4" d="M769.129,117.188c-0.275-1.756-0.358-2.701,0.337-4.985c0.695-2.283,1.642-2.952,1.355-2.985
				c-0.285-0.031-1.616-0.423-2.12-0.306c-0.502,0.116-1.908,1.553-2.301,4.403c-0.391,2.85,0.113,3.264,0.649,3.465
				C767.587,116.981,769.22,117.758,769.129,117.188z"/>
			<path fill="#9DC2C4" d="M765.731,115.896c-0.241-1.195-0.451-2.412,0.068-4.264c0.517-1.85,2.733-3.166,1.468-3.378
				s-2.403-0.797-2.98-0.075c-0.575,0.723-2.392,3.266-1.894,5.909c0.291,1.223,0.828,1.351,1.771,1.687
				S765.804,116.25,765.731,115.896z"/>
			<path fill="#9DC2C4" d="M761.811,114.919c-0.248-1.185-0.37-2.796,0.087-4.022c0.458-1.224,0.414-1.49,1.039-2.127
				c0.63-0.636,1.611-1.217,0.064-1.783c-0.507-0.243-1.029-0.662-1.496,0.359c-0.463,1.024-1.995,2.15-2.587,2.707
				c-0.59,0.556-0.619,2.047-0.207,2.842c0.412,0.793,0.943,1.932,1.999,2.11C761.766,115.18,761.864,115.179,761.811,114.919z"/>
		</g>
		<g>
			<path fill="#9DC2C4" d="M757.83,114.201c-0.267-1.328-0.514-2.811,0.294-5.031c0.807-2.222,1.749-2.49,1.389-2.668
				c-0.358-0.177-1.204-0.305-1.418-0.339c-0.21-0.033-1.553,0.908-2.09,3.613c-0.541,2.705-0.181,3.719,0.713,4.107
				C757.61,114.275,757.83,114.201,757.83,114.201z"/>
			<path fill="#9DC2C4" d="M755.005,113.176c-0.331-2.129-0.356-2.634,0.162-4.107c0.519-1.472,0.747-2.35,1.495-3.178
				c-0.622-0.459-1.96-0.671-1.96-0.671s-1.024,0.304-1.737,3.498c-0.711,3.192-0.029,3.629,0.171,4.009
				C753.339,113.104,755.005,113.176,755.005,113.176z"/>
			<path fill="#9DC2C4" d="M751.255,112.11c-0.145-1.653-0.117-3.01,0.979-5.069c1.098-2.058,1.348-2.107,0.992-2.303
				c-0.356-0.195-2.214-1.135-2.87,0.3c-0.655,1.432-1.427,2.362-1.391,4.804c0.036,2.44,0.321,2.088,0.749,2.21
				C750.144,112.174,751.301,112.643,751.255,112.11z"/>
			<path fill="#9DC2C4" d="M748.278,111.523c-0.192-1.766-0.175-1.139,0.096-2.573c0.272-1.435,0.559-2.518,1.131-3.624
				s0.907-1.464,0.396-1.714c-0.514-0.253-1.547-0.592-1.857-0.521c-0.31,0.072-0.995,0.95-1.254,2.259
				c-0.261,1.307-0.804,2.276-1.076,3.106c-0.271,0.83-0.792,2.701,0.287,3.069C747.084,111.896,748.315,111.877,748.278,111.523z"
				/>
			<path fill="#9DC2C4" d="M747.008,102.916c0.187-0.784-2.409-1.091-2.584-0.894c-0.176,0.195-0.84,4.716,0.216,5.958
				c0.45,0.564,0.728-0.52,0.896-2.127C745.7,104.247,746.935,103.228,747.008,102.916z"/>
			<path fill="#9DC2C4" d="M744.306,110.59c-0.236-1.902-0.614-2.473-0.726-3.832c-0.112-1.363,0.365-5.034-0.214-5.21
				c-0.578-0.174-2.834-0.991-2.715,0.648c0.119,1.639-0.137,2.856,0.109,4.954c0.246,2.099-0.021,3.207,1.435,3.626
				C743.647,111.193,744.4,111.355,744.306,110.59z"/>
			<path fill="#9DC2C4" d="M740.314,109.845c-0.251-1.69-0.235-2.649-0.563-4.189c-0.33-1.542,0.085-3.424,0.197-4.264
				c0.109-0.839-2.045-1.617-2.423-0.58c-0.376,1.036-0.742,3.016-0.802,4.794c-0.063,1.777-0.508,2.803-0.3,3.455
				c0.208,0.655,1.157,0.664,1.46-0.288c0.301-0.951,0.5-0.1,0.472,0.698C738.329,110.27,740.397,110.391,740.314,109.845z"/>
			<path fill="#9DC2C4" d="M735.473,108.615c-0.399-2.56-0.039-3.888,0.529-5.562c0.567-1.674,1.886-3.054,0.322-3.24
				c-1.567-0.185-2.046,0.599-2.749,4.131c-0.703,3.534-0.149,4.507,0.807,4.792C735.337,109.021,735.528,108.98,735.473,108.615z"
				/>
			<path fill="#9DC2C4" d="M733.084,107.967c-0.371-1.332-0.686-2.395-0.14-4.439c0.547-2.044,1.037-3.044,1.491-3.703
				c0.451-0.659-1.591-0.455-2.081-0.389c-0.493,0.064-1.645,2.203-1.735,5.014c-0.09,2.813-0.084,3.09,1.211,3.492
				C733.125,108.343,733.152,108.215,733.084,107.967z"/>
			<path fill="#9DC2C4" d="M729.854,107.101c-0.276-1.755-0.357-2.7,0.338-4.985c0.694-2.284,1.642-2.952,1.355-2.985
				c-0.284-0.031-1.616-0.425-2.12-0.307c-0.502,0.117-1.909,1.553-2.301,4.404c-0.392,2.849,0.113,3.262,0.648,3.465
				C728.313,106.896,729.946,107.672,729.854,107.101z"/>
			<path fill="#9DC2C4" d="M726.458,105.809c-0.241-1.195-0.45-2.411,0.066-4.262c0.519-1.852,2.734-3.167,1.47-3.378
				c-1.266-0.212-2.406-0.796-2.981-0.075s-2.394,3.265-1.894,5.908c0.292,1.222,0.828,1.352,1.771,1.688
				C725.833,106.025,726.528,106.165,726.458,105.809z"/>
			<path fill="#9DC2C4" d="M722.535,104.833c-0.247-1.184-0.37-2.796,0.089-4.021c0.458-1.226,0.412-1.492,1.04-2.127
				c0.628-0.636,1.609-1.218,0.063-1.783c-0.508-0.244-1.029-0.663-1.494,0.36c-0.466,1.023-1.998,2.149-2.588,2.706
				c-0.591,0.556-0.62,2.047-0.207,2.841c0.413,0.795,0.944,1.934,1.998,2.109C722.49,105.095,722.59,105.092,722.535,104.833z"/>
		</g>
	</g>
	<g>
		<g>
			<path fill="#9DC2C4" d="M782.075,154.07c0.089-1.35,0.241-2.85,1.604-4.779c1.357-1.932,2.338-1.939,2.038-2.209
				c-0.302-0.265-1.083-0.611-1.279-0.701c-0.195-0.086-1.736,0.471-2.967,2.939c-1.231,2.471-1.147,3.541-0.39,4.153
				C781.844,154.086,782.075,154.07,782.075,154.07z"/>
			<path fill="#9DC2C4" d="M779.615,152.337c0.239-2.14,0.349-2.634,1.233-3.919c0.89-1.282,1.339-2.07,2.277-2.673
				c-0.479-0.607-1.716-1.163-1.716-1.163s-1.067,0.025-2.592,2.918c-1.523,2.896-0.981,3.499-0.887,3.916
				S779.615,152.337,779.615,152.337z"/>
			<path fill="#9DC2C4" d="M776.278,150.328c0.292-1.635,0.673-2.936,2.271-4.634c1.601-1.698,1.854-1.682,1.563-1.964
				c-0.293-0.279-1.839-1.675-2.848-0.465c-1.007,1.213-1.996,1.908-2.604,4.273c-0.604,2.363-0.236,2.097,0.144,2.328
				C775.187,150.096,776.182,150.854,776.278,150.328z"/>
			<path fill="#9DC2C4" d="M773.559,148.98c0.276-1.752,0.13-1.145,0.769-2.457c0.638-1.313,1.197-2.285,2.04-3.201
				c0.843-0.917,1.261-1.174,0.83-1.552c-0.427-0.375-1.337-0.976-1.655-0.988c-0.317-0.011-1.21,0.655-1.804,1.852
				c-0.593,1.196-1.37,1.987-1.852,2.714c-0.48,0.73-1.474,2.398-0.527,3.038C772.307,149.025,773.502,149.333,773.559,148.98z"/>
			<path fill="#9DC2C4" d="M774.59,140.344c0.385-0.711-2.039-1.687-2.259-1.543s-2.048,4.333-1.356,5.807
				c0.287,0.663,0.839-0.311,1.422-1.815C772.979,141.285,774.436,140.623,774.59,140.344z"/>
			<path fill="#9DC2C4" d="M769.969,147.037c0.271-1.9,0.058-2.544,0.305-3.887c0.25-1.345,1.674-4.762,1.16-5.084
				c-0.512-0.319-2.475-1.699-2.788-0.086c-0.315,1.611-0.883,2.721-1.196,4.809c-0.311,2.089-0.857,3.09,0.434,3.873
				C769.176,147.447,769.86,147.801,769.969,147.037z"/>
			<path fill="#9DC2C4" d="M766.314,145.271c0.2-1.697,0.469-2.616,0.555-4.189c0.087-1.572,0.98-3.281,1.309-4.061
				c0.324-0.783-1.549-2.1-2.186-1.196c-0.635,0.899-1.506,2.716-2.031,4.415c-0.525,1.696-1.228,2.572-1.195,3.256
				c0.03,0.685,0.943,0.943,1.483,0.104c0.541-0.839,0.509,0.036,0.273,0.798S766.248,145.822,766.314,145.271z"/>
			<path fill="#9DC2C4" d="M761.962,142.814c0.287-2.572,0.984-3.76,1.972-5.227c0.985-1.467,2.619-2.451,1.159-3.043
				c-1.463-0.588-2.132,0.041-3.737,3.268c-1.604,3.225-1.325,4.308-0.477,4.832C761.726,143.173,761.923,143.184,761.962,142.814z"
				/>
			<path fill="#9DC2C4" d="M759.828,141.565c-0.012-1.384-0.034-2.495,1.029-4.323c1.063-1.831,1.8-2.663,2.408-3.182
				c0.61-0.518-1.414-0.855-1.905-0.921c-0.489-0.063-2.163,1.692-2.988,4.384c-0.823,2.691-0.891,2.959,0.253,3.688
				C759.766,141.938,759.832,141.82,759.828,141.565z"/>
			<path fill="#9DC2C4" d="M756.94,139.881c0.192-1.764,0.36-2.699,1.632-4.721c1.269-2.022,2.357-2.418,2.09-2.525
				c-0.266-0.105-1.448-0.832-1.965-0.85c-0.515-0.02-2.249,0.998-3.375,3.645c-1.125,2.648-0.746,3.179-0.282,3.513
				C755.504,139.279,756.877,140.455,756.94,139.881z"/>
			<path fill="#9DC2C4" d="M753.999,137.746c0.08-1.218,0.198-2.447,1.186-4.098c0.981-1.648,3.467-2.338,2.301-2.873
				c-1.166-0.537-2.11-1.401-2.855-0.857c-0.746,0.547-3.165,2.527-3.379,5.207c-0.038,1.257,0.445,1.521,1.269,2.094
				C753.34,137.791,753.976,138.105,753.999,137.746z"/>
			<path fill="#9DC2C4" d="M750.472,135.773c0.07-1.207,0.376-2.794,1.139-3.857c0.763-1.062,0.791-1.33,1.562-1.781
				c0.773-0.446,1.873-0.752,0.528-1.703c-0.425-0.369-0.818-0.91-1.536-0.045s-2.492,1.553-3.207,1.932
				c-0.716,0.383-1.136,1.814-0.944,2.688c0.189,0.875,0.403,2.114,1.375,2.563C750.359,136.015,750.456,136.038,750.472,135.773z"
				/>
		</g>
		<g>
			<path fill="#9DC2C4" d="M746.819,134.037c0.091-1.35,0.241-2.848,1.604-4.777c1.36-1.933,2.34-1.945,2.04-2.211
				c-0.3-0.264-1.083-0.61-1.279-0.697c-0.197-0.088-1.738,0.467-2.967,2.938c-1.229,2.467-1.147,3.539-0.389,4.15
				C746.587,134.053,746.819,134.037,746.819,134.037z"/>
			<path fill="#9DC2C4" d="M744.361,132.307c0.239-2.142,0.347-2.637,1.233-3.92c0.887-1.284,1.338-2.072,2.276-2.676
				c-0.48-0.604-1.715-1.161-1.715-1.161s-1.068,0.025-2.594,2.921c-1.523,2.894-0.98,3.495-0.887,3.914
				C742.772,131.801,744.361,132.307,744.361,132.307z"/>
			<path fill="#9DC2C4" d="M741.021,130.297c0.295-1.636,0.676-2.937,2.274-4.637c1.599-1.696,1.854-1.68,1.563-1.962
				c-0.292-0.282-1.839-1.676-2.849-0.464c-1.009,1.211-1.995,1.906-2.603,4.271c-0.604,2.363-0.236,2.1,0.144,2.328
				C739.934,130.065,740.927,130.821,741.021,130.297z"/>
			<path fill="#9DC2C4" d="M738.303,128.949c0.279-1.753,0.131-1.146,0.768-2.459c0.641-1.313,1.2-2.282,2.041-3.199
				c0.843-0.919,1.262-1.176,0.832-1.551c-0.429-0.378-1.339-0.977-1.655-0.991c-0.317-0.013-1.21,0.656-1.803,1.853
				c-0.594,1.195-1.373,1.986-1.854,2.715c-0.479,0.731-1.472,2.398-0.526,3.037C737.054,128.994,738.247,129.3,738.303,128.949z"/>
			<path fill="#9DC2C4" d="M739.336,120.311c0.385-0.709-2.039-1.686-2.259-1.541c-0.222,0.141-2.049,4.331-1.356,5.805
				c0.286,0.664,0.839-0.31,1.423-1.816C737.724,121.25,739.182,120.592,739.336,120.311z"/>
			<path fill="#9DC2C4" d="M734.715,127.007c0.271-1.899,0.056-2.546,0.305-3.89c0.25-1.344,1.674-4.762,1.161-5.084
				c-0.514-0.32-2.477-1.699-2.791-0.086c-0.315,1.611-0.881,2.719-1.193,4.809s-0.861,3.089,0.434,3.877
				C733.922,127.415,734.605,127.771,734.715,127.007z"/>
			<path fill="#9DC2C4" d="M731.06,125.24c0.2-1.697,0.466-2.617,0.555-4.191c0.087-1.574,0.98-3.281,1.308-4.061
				c0.326-0.782-1.548-2.098-2.185-1.196c-0.635,0.901-1.508,2.716-2.031,4.416c-0.526,1.698-1.224,2.571-1.195,3.255
				c0.029,0.688,0.943,0.945,1.484,0.107c0.54-0.842,0.509,0.033,0.272,0.797C729.031,125.13,730.995,125.788,731.06,125.24z"/>
			<path fill="#9DC2C4" d="M726.709,122.784c0.285-2.575,0.983-3.761,1.97-5.229c0.984-1.467,2.619-2.451,1.159-3.042
				c-1.463-0.589-2.131,0.042-3.736,3.267c-1.604,3.227-1.325,4.311-0.477,4.835C726.473,123.141,726.667,123.15,726.709,122.784z"
				/>
			<path fill="#9DC2C4" d="M724.575,121.533c-0.011-1.385-0.035-2.492,1.026-4.321c1.064-1.829,1.802-2.666,2.411-3.183
				c0.609-0.519-1.415-0.855-1.906-0.921c-0.491-0.067-2.164,1.694-2.989,4.384c-0.823,2.691-0.891,2.96,0.253,3.686
				C724.514,121.906,724.575,121.789,724.575,121.533z"/>
			<path fill="#9DC2C4" d="M721.686,119.849c0.19-1.766,0.362-2.7,1.632-4.722s2.357-2.418,2.092-2.524
				c-0.267-0.104-1.449-0.835-1.966-0.853c-0.515-0.018-2.25,1-3.376,3.646c-1.125,2.646-0.747,3.181-0.282,3.516
				C720.25,119.246,721.623,120.426,721.686,119.849z"/>
			<path fill="#9DC2C4" d="M718.745,117.713c0.082-1.218,0.198-2.445,1.182-4.096c0.987-1.65,3.469-2.34,2.305-2.875
				c-1.167-0.537-2.112-1.398-2.856-0.854c-0.746,0.546-3.168,2.523-3.379,5.205c-0.037,1.256,0.445,1.521,1.268,2.093
				C718.087,117.756,718.721,118.074,718.745,117.713z"/>
			<path fill="#9DC2C4" d="M715.217,115.741c0.071-1.206,0.375-2.795,1.14-3.856c0.763-1.064,0.789-1.332,1.562-1.781
				c0.771-0.448,1.871-0.752,0.527-1.705c-0.426-0.369-0.818-0.908-1.536-0.043s-2.491,1.55-3.206,1.934
				c-0.716,0.38-1.137,1.811-0.946,2.687c0.191,0.875,0.405,2.111,1.376,2.558C715.104,115.984,715.199,116.006,715.217,115.741z"/>
		</g>
	</g>
	
		<image overflow="visible" width="581" height="578" xlink:href="../assets/central.jpg"  transform="matrix(0.2967 0 0 0.2967 406.7505 6.0757)">
	</image>
</g>
</svg>
