<?xml version="1.0" encoding="utf-8"?>
<?xml-stylesheet type="text/css" href="style.css"?>
<!-- Generator: Adobe Illustrator 16.0.0, SVG Export Plug-In . SVG Version: 6.00 Build 0)  -->
<!DOCTYPE svg PUBLIC "-//W3C//DTD SVG 1.1//EN" "http://www.w3.org/Graphics/SVG/1.1/DTD/svg11.dtd">
<svg version="1.1" id="Layer_1" xmlns="http://www.w3.org/2000/svg" xmlns:xlink="http://www.w3.org/1999/xlink" x="0px" y="0px"
	 width="1280px" height="800px" viewBox="0 0 1280 800" enable-background="new 0 0 1280 800" xml:space="preserve">
<image overflow="visible" width="1024" height="683" xlink:href="parench-52.JPG"  transform="matrix(0.3159 0 0 0.3159 448.333 279.0615)">
</image>
<g>
	<path fill="none" stroke="#000000" stroke-miterlimit="10" d="M448.333,386.947c0-54.262-134.793-107.886-188.333-107.886"/>
	<path class="blue" stroke="#000000" stroke-miterlimit="10" d="M260.5,280.5c0,6.627-5.373,12-12,12h-71c-6.627,0-12-5.373-12-12
		v-2c0-6.627,5.373-12,12-12h71c6.627,0,12,5.373,12,12V280.5z"/>
	<text transform="matrix(1 0 0 1 195.5 283.25)" font-family="'Arial'" font-size="13">Test 1</text>
</g>
<g>
	<path fill="none" stroke="#000000" stroke-miterlimit="10" d="M448.333,386.947c0,54.262-134.793,84.553-188.333,84.553"/>
	<a xlink:href="http://www.google.com/">
    <path class="blue" stroke="#000000" stroke-miterlimit="10" d="M260.5,472.5c0,6.627-5.373,12-12,12h-71c-6.627,0-12-5.373-12-12
      v-2c0-6.627,5.373-12,12-12h71c6.627,0,12,5.373,12,12V472.5z"/>
    <text transform="matrix(1 0 0 1 195.5 475.25)" font-family="'Arial'" font-size="13">To google</text>
  </a>
</g>
<g>
	<path fill="none" stroke="#000000" stroke-miterlimit="10" d="M767.333,397.947c0-54.262,139.628-107.886,193.167-107.886"/>
	<path class="red" stroke="#000000" stroke-miterlimit="10" d="M1055.5,291.5c0,6.627-5.373,12-12,12h-71
		c-6.627,0-12-5.373-12-12v-2c0-6.627,5.373-12,12-12h71c6.627,0,12,5.373,12,12V291.5z"/>
	<text transform="matrix(1 0 0 1 990.5 294.25)" font-family="'Arial'" font-size="13">Test 1</text>
</g>
<g>
	<path fill="none" stroke="#000000" stroke-miterlimit="10" d="M767.333,397.947c0,54.262,139.628,84.553,193.167,84.553"/>
	<path class="red" stroke="#000000" stroke-miterlimit="10" d="M1055.5,483.5c0,6.627-5.373,12-12,12h-71
		c-6.627,0-12-5.373-12-12v-2c0-6.627,5.373-12,12-12h71c6.627,0,12,5.373,12,12V483.5z"/>
	<text transform="matrix(1 0 0 1 990.5 486.25)" font-family="'Arial'" font-size="13">Test 2</text>
</g>
</svg>
