<?xml version="1.0" encoding="utf-8"?>
<!-- Generator: Adobe Illustrator 16.0.0, SVG Export Plug-In . SVG Version: 6.00 Build 0)  -->
<!DOCTYPE svg PUBLIC "-//W3C//DTD SVG 1.1//EN" "http://www.w3.org/Graphics/SVG/1.1/DTD/svg11.dtd">
<?xml-stylesheet type="text/css" href="svg-stylesheet.css"?>
<svg version="1.1" id="Layer_1_copy" xmlns="http://www.w3.org/2000/svg" xmlns:xlink="http://www.w3.org/1999/xlink" x="0px"
	 y="0px" width="1280px" height="800px" viewBox="0 0 1280 800" enable-background="new 0 0 1280 800" xml:space="preserve">
<image overflow="visible" width="1024" height="683" xlink:href="background.jpg"  transform="matrix(0.3159 0 0 0.3159 533.333 279.0615)">
</image>
<g>
	<text transform="matrix(1 0 0 1 249.1162 351.875)" class="blue" font-family="'Arial-BoldMT'" font-size="16">La cage thoracique</text>
</g>
<g>
	<text transform="matrix(1 0 0 1 436.3066 401.25)" class="blue" font-family="'Arial-BoldMT'" font-size="16">Anatomie</text>
</g>
<g>
	<text transform="matrix(1 0 0 1 197.5771 385.875)" class="blue" font-family="'Arial-BoldMT'" font-size="16">Arbre tracheo-bronchique</text>
</g>
<g>
	<text transform="matrix(1 0 0 1 242.8896 421.875)" class="blue" font-family="'Arial-BoldMT'" font-size="16">Poumons et plèvres</text>
</g>
<g>
	<text transform="matrix(1 0 0 1 321.1475 455.875)" class="blue" font-family="'Arial-BoldMT'" font-size="16">Médiastin</text>
</g>
<g>
	<text transform="matrix(1 0 0 1 41.1172 198.5)" class="blue" font-family="'Arial-BoldMT'" font-size="16">Anatomie de surface</text>
</g>
<g>
	<text transform="matrix(1 0 0 1 115.8203 236.5)" class="blue" font-family="'Arial-BoldMT'" font-size="16">Ostéologie</text>
</g>
<g>
	<text transform="matrix(1 0 0 1 112.2813 274.5)" class="blue" font-family="'Arial-BoldMT'" font-size="16">Arthrologie</text>
</g>
<g>
	<text transform="matrix(1 0 0 1 129.1641 312.5)" class="blue" font-family="'Arial-BoldMT'" font-size="16">Myologie</text>
</g>
<g>
	<text transform="matrix(1 0 0 1 865.2285 388.25)" class="blue" font-family="'Arial-BoldMT'" font-size="16">Radioanatomie</text>
</g>
<g>
	<text transform="matrix(1 0 0 1 1037.8711 312.25)" class="blue" font-family="'Arial-BoldMT'" font-size="16">Radiographie standard</text>
</g>
<g>
	<text transform="matrix(1 0 0 1 1037.8711 350.75)" class="blue" font-family="'Arial-BoldMT'" font-size="16">TDM</text>
</g>
<g>
	<text transform="matrix(1 0 0 1 1037.8711 388.25)" class="blue" font-family="'Arial-BoldMT'" font-size="16">IRM</text>
</g>
<g>
	<text transform="matrix(1 0 0 1 1037.8711 426.75)" class="blue" font-family="'Arial-BoldMT'" font-size="16">Echographie</text>
</g>
<g>
	<text transform="matrix(1 0 0 1 1037.8711 465.25)" class="blue" font-family="'Arial-BoldMT'" font-size="16">Angiographie</text>
</g>
<line fill="none" stroke="#000000" stroke-miterlimit="10" x1="208.5" y1="197.5" x2="242.5" y2="349.5"/>
<line fill="none" stroke="#000000" stroke-miterlimit="10" x1="208.5" y1="236.5" x2="242.5" y2="349.5"/>
<line fill="none" stroke="#000000" stroke-miterlimit="10" x1="208.5" y1="274.5" x2="242.5" y2="349.5"/>
<line fill="none" stroke="#000000" stroke-miterlimit="10" x1="208.5" y1="312.5" x2="242.5" y2="349.5"/>
<line fill="none" stroke="#000000" stroke-miterlimit="10" x1="428.5" y1="398.5" x2="399.5" y2="350.5"/>
<line fill="none" stroke="#000000" stroke-miterlimit="10" x1="428.5" y1="398.5" x2="399.5" y2="383.5"/>
<line fill="none" stroke="#000000" stroke-miterlimit="10" x1="428.5" y1="398.5" x2="399.5" y2="421.5"/>
<line fill="none" stroke="#000000" stroke-miterlimit="10" x1="428.5" y1="398.5" x2="399.5" y2="454.5"/>
<line fill="none" stroke="#000000" stroke-miterlimit="10" x1="985.5" y1="383.5" x2="1028.5" y2="461.5"/>
<line fill="none" stroke="#000000" stroke-miterlimit="10" x1="985.5" y1="383.5" x2="1028.5" y2="424.25"/>
<line fill="none" stroke="#000000" stroke-miterlimit="10" x1="985.5" y1="383.5" x2="1028.5" y2="384.75"/>
<line fill="none" stroke="#000000" stroke-miterlimit="10" x1="986.334" y1="383.5" x2="1028.5" y2="346.5"/>
<line fill="none" stroke="#000000" stroke-miterlimit="10" x1="986.334" y1="383.5" x2="1028.5" y2="308.5"/>
</svg>
